<?xml version="1.0" encoding="UTF-8"?>
<svg id="Camada_1" xmlns="http://www.w3.org/2000/svg" xmlns:xlink="http://www.w3.org/1999/xlink" version="1.1" viewBox="0 0 262.2 299">
  <!-- Generator: Adobe Illustrator 30.1.0, SVG Export Plug-In . SVG Version: 2.1.1 Build 136)  -->
  <defs>
    <style>
      .st0, .st1, .st2 {
        fill: none;
      }

      .st3 {
        fill: #012442;
      }

      .st4 {
        fill: #af4fa6;
      }

      .st5 {
        fill: #f29b3b;
      }

      .st1, .st2, .st6 {
        stroke: #012442;
        stroke-miterlimit: 10;
        stroke-width: 8px;
      }

      .st1, .st6 {
        stroke-linecap: round;
      }

      .st7, .st6 {
        fill: #fff;
      }

      .st8 {
        fill: #d379c2;
      }

      .st9 {
        fill: #c965bb;
      }

      .st10 {
        fill: #ffe497;
      }

      .st11 {
        fill: #ffea55;
      }

      .st12 {
        fill: #f2a5e8;
      }

      .st13 {
        clip-path: url(#clippath);
      }
    </style>
    <clipPath id="clippath">
      <circle class="st0" cx="130" cy="176.3" r="123.3"/>
    </clipPath>
  </defs>
  <g id="Camada_3">
    <circle class="st5" cx="130.5" cy="175.5" r="123.3"/>
    <g class="st13">
      <g>
        <path class="st3" d="M217.3,301.8c-12.5,0-23.7-7.9-26.6-19.4-9.3-37.2-33-47.3-34-47.7l.6.2,19.8-46.6c5.2,1.9,51.2,19.9,66.9,83,3.4,13.5-5.9,26.9-20.6,29.9-2,.4-4.1.6-6.1.6"/>
        <path class="st8" d="M218.5,293.7c-8.3,0-15.8-5.2-17.7-13-10.6-42.7-44.2-57.5-44.5-57.7-9.2-3.8-13.3-13.6-9.2-22s14.9-12.1,24.1-8.4c2,.8,50.3,21.2,65.1,80.7,2.2,9-3.9,17.9-13.7,19.9-1.3.3-2.7.4-4.1.5"/>
        <path class="st3" d="M34.7,302.6c-2,0-4.1-.2-6.1-.6-14.7-3.1-23.9-16.5-20.6-29.9,15.8-63.1,65.7-84.7,70.8-86.6l19.8,46.6s-3.7,3.6-3.4,3.4c-1,.4-24.8,10.5-34,47.7-2.9,11.6-14.2,19.4-26.6,19.4"/>
        <path class="st8" d="M33.5,294.5c-1.4,0-2.7-.1-4.1-.4-9.8-2-15.9-11-13.7-19.9,14.8-59.4,64.9-80.6,66.9-81.5l20.3,26.9.3.3c-1.4.6-41.4,19.1-52,61.7-1.9,7.7-9.5,13-17.8,13"/>
        <path id="peito" class="st8" d="M193.3,301.8s7.6-85.6-43.8-112.2l-56.5,2.2c-45,15.9-42.6,110.1-42.6,110.1h142.8Z"/>
        <path class="st9" d="M34.5,233.1c64.6,58.2,165.5,28.5,184.7,1.8-13.7-24.2-45.9-49-63.9-41.9-9.9-9.7-64.6,3.4-72.5-.2-2.6,1.9-26.8,10.9-48.4,40.3"/>
        <path class="st3" d="M63.4,250.5c-1.7-1-3.9-.5-4.9,1.2-.2.3-.3.6-.4.9-2.8,10.7-5.1,25.2-5.1,44,0,1.9,1.7,3.4,3.6,3.3,0,0,0,0,0,0,1.9,0,3.6-1.4,3.7-3.3,0-18,2.2-32,4.9-42.2.4-1.6-.3-3.2-1.7-4h0ZM191.6,250.5c-1.5.8-2.2,2.5-1.8,4.1,2.6,10.2,4.8,24.1,4.8,42.2,0,1.9,1.7,3.4,3.6,3.3,1.9,0,3.6-1.4,3.6-3.3,0-18.8-2.3-33.3-5.1-44-.5-1.9-2.5-3.1-4.4-2.6-.3,0-.5.2-.8.3h0Z"/>
      </g>
    </g>
    <path class="st8" d="M230.8,72.6c-11.5-27.4-36.4-49.8-98.8-49.8s-92.6,15.5-101.4,46.6c-7.5,26.6-16.1,66.7-12.8,112.6,2.6,36.7,52.5,67.7,115,67.7s109.3-32.2,111.2-67.7c2.8-51.6-5.8-91.8-13.2-109.4"/>
    <path class="st4" d="M132.7,228.3c-61.9,0-114.8-32.2-114.8-88.1-1,13.9-1.1,27.9-.1,41.8,2.6,36.7,52.5,67.7,115,67.7s109.3-32.2,111.2-67.7c.8-13.8.7-27.5-.1-41.3,0,52-49.6,87.6-111.1,87.6"/>
    <path class="st2" d="M230.8,72.6c-11.5-27.4-36.4-49.8-98.8-49.8s-92.6,15.5-101.4,46.6c-7.5,26.6-16.1,66.7-12.8,112.6,2.6,36.7,52.5,67.7,115,67.7s109.3-32.2,111.2-67.7c2.8-51.6-5.8-91.8-13.2-109.4Z"/>
    <circle class="st11" cx="135.2" cy="98" r="34.9"/>
    <circle class="st1" cx="132.9" cy="98" r="34.9"/>
    <path class="st3" d="M134.5,99.5l15.1-14.2c-7.8-8.3-20.9-8.8-29.3-.9-8.3,7.8-8.8,20.9-.9,29.3,7.8,8.3,20.9,8.8,29.3.9,1.5-1.4,2.7-3,3.7-4.7l-17.9-10.4Z"/>
    <path class="st12" d="M225,152.1c-2.6-1-5.5.3-6.4,2.9h0c-1.7,4.3-3.8,8.5-6.2,12.4-4.1-4.8-10.8-11.2-18-12.4-2.4-.4-5.9.2-14.3,1.9-12.1,2.3-30.3,5.9-48.8,5.9h-.1c-19.7,0-39.7-3.5-53-5.9-9.5-1.7-13.4-2.3-15.9-1.9-7.2,1.2-13.9,7.6-18,12.4-2.5-3.9-4.6-8.1-6.2-12.4-1-2.6-3.9-3.9-6.4-2.9-2.6,1,2.2,20.1,9.2,27l4.3,4.3,3.4-5.1c3.2-4.7,10.1-12.5,15.4-13.5,1.5,0,7.4,1,12.6,1.9,13.6,2.4,34.2,6,54.7,6h.1c19.5,0,38.3-3.6,50.8-6.1,4.5-.9,9.5-1.8,10.9-1.8,5.2,1,12.2,8.8,15.3,13.5l3.4,5.1,4.3-4.3c6.9-7,11.8-26.1,9.2-27"/>
    <path class="st6" d="M162.7,158.9l-3.1-20.7c-.9-6,3.1-11.7,9.1-12.8l3.9-.7c6.2-1.2,12.1,2.9,13.3,9.1,0,0,0,0,0,0l3.8,20.5-27,4.7Z"/>
    <path class="st1" d="M223.3,150.7s-4.7,12.5-11,18.8c0,0-9.4-14.1-18.8-15.6-4.6-.8-33.1,7.9-62.5,7.8-31.2,0-63.2-8.6-68.1-7.8-9.4,1.6-18.8,15.6-18.8,15.6-6.3-6.3-11-18.8-11-18.8"/>
    <path class="st8" d="M90.3,99.3s51.5-20,85.1,0c0,0,6.3-37.8-37.8-44.1s-48.3,34.7-47.3,44.1"/>
    <path class="st12" d="M101.9,96.3c13.2-2.4,26.2-5.9,39.7-4.7,9.6.8,19.7,2.7,28,7.8h5.7c0-.1,3.3-7.6,3.3-7.6-1.9-1.9-14-10.3-46.2-8.9-29.8,1.3-43.4,11.7-43.4,11.7l4.2,6.5h3c1-2.5,3.2-4.2,5.7-4.8"/>
    <path class="st1" d="M104.8,60.4c-14,10.1-17,22.8-16.8,37.1,0,2.1,4.3,5.6,7.5,4.3,1-.4,1.1-3.6,2.2-4,11.9-4.8,32.6-10.7,70.5-2.4,2.3.5.5,4.2,2.9,4.9,1.9.5,7.8,0,7.7-4.2-.4-10.9-6-31.9-18.9-37.7"/>
    <circle class="st4" cx="71.2" cy="193.3" r="16.4"/>
    <circle class="st4" cx="47.7" cy="119.9" r="9.4"/>
    <circle class="st4" cx="186.2" cy="199.2" r="9.4"/>
    <circle class="st4" cx="108" cy="191.4" r="9.4"/>
    <circle class="st4" cx="68.8" cy="130.9" r="5.3"/>
    <circle class="st4" cx="206.2" cy="111.1" r="5.3"/>
    <circle class="st4" cx="207.4" cy="90" r="9.4"/>
    <path class="st10" d="M218.9,62.5l11-42.4c.5-2.5-2.8-5.2-5-4.2l-39.9,18c-1.4.4-2.6,1.2-3.6,2.3-4.8,5.5-.8,16.9,9,25.6s21.7,11.3,26.5,5.8c1.2-1.4,1.9-3.2,2-5.1"/>
    <path class="st3" d="M209.5,74.4c-6.6,0-14.7-3.3-21.8-9.6-11.6-10.3-15.7-24-9.3-31.2,1.4-1.6,3.2-2.7,5.2-3.4l39.7-17.9c2.3-1.1,5.2-.6,7.5,1.2,2.4,1.9,3.6,4.7,3,7.4v.2c0,0-11.1,42.7-11.1,42.7v.2c-.2.3-.3.8-.5,1.3-.4,1.5-.9,3.3-2.3,5-2.5,2.8-6.2,4.2-10.5,4.2ZM225.8,19.8l-39.4,17.8h-.2c-.7.3-1.3.7-1.8,1.2-2.8,3.2.3,12.4,8.7,19.9,8.4,7.5,18,9.4,20.9,6.2.2-.2.4-1.1.6-1.8.2-.6.3-1.2.5-1.8l10.7-41.4ZM226.6,19.5h0s0,0,0,0Z"/>
    <path class="st10" d="M38.3,62.5l-11-42.5c-.5-2.5,2.8-5.2,5-4.2l39.9,18c1.4.4,2.6,1.2,3.6,2.3,4.8,5.5.8,16.9-9,25.6s-21.7,11.3-26.5,5.8c-1.2-1.4-1.9-3.2-2-5.1"/>
    <path class="st3" d="M47.9,74.6c-4.1,0-7.6-1.4-10.1-4.2-2.2-2.5-3.3-5-3.6-7.3l-10.9-42.3c-.5-2.7.6-5.5,3-7.4,2.3-1.8,5.2-2.3,7.6-1.2l39.6,17.9c2,.7,3.7,1.8,5.1,3.4,6.4,7.2,2.3,21-9.3,31.3-7.3,6.4-15.1,9.8-21.5,9.8ZM31.4,19.8l10.9,42.1v.4c0,.3.4,1.4,1.7,2.9,2.7,3.1,11.6,1.3,20.2-6.4,8.4-7.5,11.5-16.7,8.7-19.9-.5-.5-1.1-.9-1.8-1.1l-.5-.2L31.4,19.8ZM30.7,19.5s0,0,0,0h0Z"/>
    <ellipse class="st7" cx="112.1" cy="38.8" rx="6.2" ry="6.9" transform="translate(13 104) rotate(-52.4)"/>
    <ellipse class="st7" cx="128" cy="51.8" rx="3.9" ry="4.3" transform="translate(8.8 121.6) rotate(-52.4)"/>
  </g>
</svg>