<?xml version="1.0" encoding="UTF-8"?>
<svg id="Camada_8" xmlns="http://www.w3.org/2000/svg" xmlns:xlink="http://www.w3.org/1999/xlink" version="1.1" viewBox="0 0 262.2 299">
  <!-- Generator: Adobe Illustrator 30.1.0, SVG Export Plug-In . SVG Version: 2.1.1 Build 136)  -->
  <defs>
    <style>
      .st0 {
        fill: none;
      }

      .st1 {
        fill: #012442;
      }

      .st2 {
        fill: #ff6ee0;
      }

      .st3 {
        fill: #ffeb76;
      }

      .st4 {
        fill: #36d695;
      }

      .st5 {
        fill: #ffd385;
      }

      .st6 {
        fill: #cb8fff;
      }

      .st7 {
        fill: #ffedbb;
      }

      .st8 {
        fill: #e8d9f9;
      }

      .st9 {
        fill: #9077aa;
      }

      .st10 {
        clip-path: url(#clippath-1);
      }

      .st11 {
        fill: #b38ed6;
      }

      .st12 {
        fill: #fff;
      }

      .st13 {
        fill: #c17449;
      }

      .st14 {
        fill: #3ec63e;
        fill-rule: evenodd;
      }

      .st15 {
        fill: #e1c6f4;
      }

      .st16 {
        fill: #51157c;
      }

      .st17 {
        fill: #dd7f4a;
      }

      .st18 {
        fill: #f4e9ff;
      }

      .st19 {
        fill: #63361d;
      }

      .st20 {
        opacity: .5;
      }

      .st21 {
        opacity: .3;
      }

      .st22 {
        fill: #bf64ff;
      }

      .st23 {
        fill: #6cff92;
      }

      .st24 {
        fill: #e9cfff;
      }

      .st25 {
        clip-path: url(#clippath);
      }
    </style>
    <clipPath id="clippath">
      <path class="st0" d="M131.3,297.9c68.6-.2,124-56.1,123.7-124.6-.2-57.8-56.1-124-124.6-123.7-68.6.2-123.9,66.8-123.7,124.6.2,68.6,56.1,124,124.6,123.7Z"/>
    </clipPath>
    <clipPath id="clippath-1">
      <path class="st0" d="M199.7,205.7c0-16.1-16.7-24-32-13.8-3.1,2.1-6.8,3.6-10.3,4.7-5.7,1.7-11.7,2.5-17.8,2.5h-18c-3.5,0-7-.3-10.4-.8-5.6-.9-13.4-2.8-18-6.3-14.3-11-32-2.4-32,13.8s19.5,35.9,65.5,37.4h7.4c54.2-1.8,65.5-17.2,65.5-37.4Z"/>
    </clipPath>
  </defs>
  <g id="Camada_2">
    <path class="st14" d="M131.8,298.2c68.6-.2,124-56.1,123.7-124.6-.2-57.8-56.1-124-124.6-123.7-68.6.2-123.9,66.8-123.7,124.6.2,68.6,56.1,124,124.6,123.7Z"/>
    <g class="st25">
      <g>
        <path class="st1" d="M218.8,300.1c-12.6,0-23.9-7.9-26.8-19.6-9.3-37.5-33.2-47.7-34.3-48.1.4.2.6.2.6.2l20-46.9c5.2,1.9,51.5,20,67.3,83.5,3.4,13.5-5.9,27-20.7,30.1-2.1.4-4.1.6-6.1.6h0Z"/>
        <path class="st15" d="M220,292c-8.4,0-15.9-5.3-17.9-13-10.7-43-44.5-57.9-44.8-58.1-9.3-3.8-13.4-13.7-9.2-22.2,4.1-8.5,15-12.2,24.2-8.5,2.1.9,50.7,21.4,65.6,81.2,2.2,9-3.9,18-13.8,20.1-1.4.3-2.7.4-4.1.4h0Z"/>
        <path class="st1" d="M35.9,301.8c-2,0-4.1-.2-6.1-.6-14.8-3.1-24.1-16.6-20.7-30.1,15.8-63.6,66.1-85.3,71.3-87.2l20,46.9s-3.8,3.6-3.4,3.4c-1,.4-24.9,10.6-34.3,48.1-2.9,11.7-14.2,19.6-26.8,19.6h0Z"/>
        <path class="st15" d="M33.7,292.8c-1.4,0-2.7-.1-4.1-.4-9.9-2.1-16-11-13.8-20.1,14.9-59.8,65.3-81.2,67.4-82.1l20.4,27.1.3.3c-1.4.6-41.7,19.2-52.4,62.1-1.9,7.8-9.5,13-17.9,13h0Z"/>
        <g id="peito">
          <path class="st15" d="M205.4,299.7s-2.4-86.2-54.2-113l-56.8,2.3c-45.4,16-42.9,110.8-42.9,110.8h153.9Z"/>
        </g>
        <path class="st9" d="M27.3,251.9c65.4,57,182.5,29.3,200.9,3.9-16-31.8-58.1-51.5-76.2-44.3-10-9.8-65.1,3.4-73-.2-2.6,1.9-17.2-6-51.7,40.6h0Z"/>
      </g>
    </g>
    <path class="st15" d="M219.7,257h-1.4c0,0,.4,0,.4,0,1.8,0,4.8-1.3,4.8-2.5l-1.1-27.7-185.8-.2v27.8c0,1.2,1.2,2.5,3,2.5h.7c59.2,8.6,120.7,8.6,179.4,0Z"/>
    <path class="st22" d="M218.7,266.4c-59.6,8.7-119.3,8.7-179.1,0-5.1,0-9.2-4.4-9.2-9.8V107c0-19.9,15.1-36,33.6-36h130.2c18.6,0,33.6,16.1,33.6,36v149.6c0,5.4-4.1,9.8-9.2,9.8h0Z"/>
    <path class="st6" d="M194.3,80c13.8,0,25,12,25,26.7l4.1,149.6c0,.3-.2.6-.5.6h-.8c0,0-.2,0-.2,0h-.2c-29.1,4.3-62.8,6.4-92.3,6.4s-62.4-2.2-91.7-6.4h-.3s-.5,0-.5,0h-.2c0,0-.2,0-.2,0-.3,0-.5-.2-.5-.6l3.1-149.6c0-14.7,11.2-26.7,25-26.7h130.2M194.3,74.5H64.1c-16.6,0-30.1,14.4-30.1,32.2l-3.1,149.6c0,3.3,2.5,6,5.6,6h.5c29.7,4.3,62.6,6.5,92.4,6.5s63.6-2.2,93-6.5h.5c3.1,0,5.6-2.7,5.6-6.1l-4.1-149.6c0-17.8-13.5-32.2-30.1-32.2h0Z"/>
    <path class="st0" d="M218.7,266.4c-63.1,8.4-123.1,9-179.1,0-5.1,0-9.2-4.4-9.2-9.8V107c0-19.9,15.1-36,33.6-36h130.2c18.6,0,33.6,16.1,33.6,36v149.6c0,5.4-4.1,9.8-9.2,9.8h0Z"/>
    <rect class="st16" x="120.4" y="92" width="17.4" height="147.5" rx="3.2" ry="3.2"/>
    <path class="st8" d="M30.3,226.6v29.9c0,5.4,4.1,9.8,9.2,9.8,59.8,8.7,119.6,8.7,179.1,0,5.1,0,9.2-4.4,9.2-9.8v-29.9H30.3Z"/>
    <path class="st1" d="M124.8,277.1c-30,0-58.6-2.2-85.6-6.5-3.9-.1-8.2-2.3-11.3-5.7-3.6-4-5.3-9.4-4.8-15.2l3.1-142.9c0-22.1,17-40.1,37.9-40.1h130.2c20.9,0,37.9,18,37.9,40.2l4.1,148.4h0c0,10.9-9.2,14.3-17,15.2-32.8,4.3-64.3,6.5-94.4,6.5h0ZM64,75.2c-16.2,0-29.4,14.3-29.4,31.8l-3.1,143.1v.3c-.4,4.4,1.2,7.3,2.6,8.9,1.8,2,4.1,2.9,5.4,2.9s.5,0,.7,0c53.3,8.6,113.1,8.6,177.9,0h0c9.4-1.1,9.5-4.8,9.5-6.7l-4.1-148.4h0c0-17.6-13.2-31.9-29.4-31.9H64Z"/>
    <path class="st3" d="M212,120c0-15.5-14.5-28.1-32.4-28.1s-32.4,12.6-32.4,28.1v28.4c.8,14.9,15,25.6,32.4,25.6s31.6-11.9,32.4-26.7c0,0,0-26.3,0-27.3Z"/>
    <path class="st1" d="M179.5,177.2c-19.4,0-34.7-12.3-35.5-28.7v-1.3c0,0,0-27.3,0-27.3,0-17.2,16-31.2,35.6-31.2s35.6,14,35.6,31.2,0,27.3,0,27.3v.2c-.9,16.7-16.5,29.8-35.6,29.8ZM150.3,147.3v1c.7,12.8,13.3,22.6,29.2,22.6s28.4-10.4,29.2-23.7c0-1.6,0-26.2,0-27.2,0-13.7-13.1-24.9-29.2-24.9s-29.2,11.2-29.2,24.9v27.3Z"/>
    <path class="st1" d="M180.1,102.5c-12,0-22.2,7.9-22.2,17.1v27.9c.6,8.6,10.3,15.3,22.2,15.3s21.5-7.1,22.2-16.2c0-3.8,0-26,0-27,0-9.3-10.2-17.1-22.2-17.1Z"/>
    <ellipse class="st12" cx="180" cy="120.9" rx="12.2" ry="10.8"/>
    <path class="st3" d="M111.9,120.3c0-15.5-14.5-28.1-32.4-28.1s-32.4,12.6-32.4,28.1v28.4c.8,14.9,15,25.6,32.4,25.6s31.6-11.9,32.4-26.7c0,0,0-27.3,0-27.3Z"/>
    <path class="st1" d="M79.5,177.6c-19.4,0-34.7-12.3-35.5-28.7v-1.3c0,0,0-27.3,0-27.3,0-17.2,16-31.2,35.6-31.2s35.6,14,35.6,31.2,0,27.3,0,27.3v.2c-.9,16.7-16.5,29.8-35.6,29.8ZM50.2,147.6v1c.7,12.8,13.3,22.6,29.2,22.6s28.4-10.4,29.2-23.7c0-1.7,0-27.1,0-27.2,0-13.7-13.1-24.9-29.2-24.9s-29.2,11.2-29.2,24.9c0,0,0,27.3,0,27.3Z"/>
    <path class="st1" d="M80,102.9c-12,0-22.2,7.9-22.2,17.1v27.9c.6,8.6,10.3,15.3,22.2,15.3s22.2-7,22.2-16.2c.1-.1,0-26,0-27,0-9.3-10.2-17.1-22.2-17.1Z"/>
    <ellipse class="st12" cx="80" cy="121.2" rx="12.2" ry="10.8"/>
    <ellipse class="st23" cx="205.6" cy="244.2" rx="7.9" ry="8.5"/>
    <path class="st1" d="M205.6,254.3c-5.3,0-9.5-4.5-9.5-10.1s4.3-10.1,9.5-10.1,9.5,4.5,9.5,10.1-4.3,10.1-9.5,10.1ZM205.6,237.3c-3.5,0-6.4,3.1-6.4,6.9s2.9,6.9,6.4,6.9,6.4-3.1,6.4-6.9-2.9-6.9-6.4-6.9Z"/>
    <path class="st16" d="M129.1,237.9c-4,0-7.3-3.7-7.3-8.3v-127.6c0-4.6,3.3-8.3,7.3-8.3s7.3,3.7,7.3,8.3v127.6c0,4.6-3.3,8.3-7.3,8.3Z"/>
    <g class="st20">
      <path class="st1" d="M129.1,95.3c3.2,0,5.8,3,5.8,6.7v127.6c0,3.7-2.6,6.7-5.8,6.7s-5.8-3-5.8-6.7v-127.6c0-3.7,2.6-6.7,5.8-6.7M129.1,92c-4.8,0-8.7,4.5-8.7,9.9v127.6c0,5.5,3.9,9.9,8.7,9.9s8.7-4.5,8.7-9.9v-127.6c0-5.5-3.9-9.9-8.7-9.9h0Z"/>
    </g>
    <g class="st20">
      <path class="st16" d="M145.5,154.1h-32.8c-5.8,0-10.5,5-10.5,11.2v14.5c0,6.2,4.7,11.2,10.5,11.2h32.8c5.8,0,10.5-5,10.5-11.2v-14.5c0-6.2-4.7-11.2-10.5-11.2Z"/>
    </g>
    <rect class="st24" x="104.8" y="150.9" width="48.7" height="31.4" rx="5.8" ry="5.8"/>
    <path class="st1" d="M145.6,185h-33c-5.8,0-10.5-4.7-10.5-10.5v-15.8c0-5.8,4.7-10.5,10.5-10.5h33c5.8,0,10.5,4.7,10.5,10.5v15.8c0,5.8-4.7,10.5-10.5,10.5ZM112.6,153.5c-2.9,0-5.2,2.3-5.2,5.2v15.8c0,2.9,2.3,5.2,5.2,5.2h33c2.9,0,5.2-2.3,5.2-5.2v-15.8c0-2.9-2.3-5.2-5.2-5.2,0,0-33,0-33,0Z"/>
    <path class="st18" d="M145.5,156.2c1.6,0,2.9,1.4,2.9,3.2v14.5c0,1.8-1.3,3.2-2.9,3.2h-32.8c-1.6,0-2.9-1.4-2.9-3.2v-14.5c0-1.8,1.3-3.2,2.9-3.2h32.8M145.5,154.1h-32.8c-2.7,0-5,2.4-5,5.3v14.5c0,2.9,2.2,5.3,5,5.3h32.8c2.7,0,5-2.4,5-5.3v-14.5c0-2.9-2.2-5.3-5-5.3h0Z"/>
    <rect class="st11" x="117.1" y="160.1" width="4.4" height="13.1" rx=".8" ry=".8"/>
    <rect class="st11" x="127.1" y="160.1" width="4.4" height="13.1" rx=".8" ry=".8"/>
    <rect class="st11" x="137.1" y="160.1" width="4.4" height="13.1" rx=".8" ry=".8"/>
    <path class="st4" d="M80,138.4c-4.7,0-9-1.9-12-4.9-1.3-1.4-3.5-.4-3.5,1.6v11.3c.4,4.4,6.7,9.1,15.6,9.1s15-4.5,15.5-10v-10.4c0-2-2.2-2.9-3.5-1.6-3,3-7.3,4.9-12,4.9h0Z"/>
    <path class="st4" d="M180,138.7c-4.7,0-9-1.9-12-4.9-1.3-1.4-3.5-.4-3.5,1.6v11.3c.4,4.4,6.7,9.1,15.6,9.1s15-4.5,15.5-10v-10.4c0-2-2.2-2.9-3.5-1.6-3,3-7.3,4.9-12,4.9h0Z"/>
    <path class="st16" d="M198.7,204.9c0-15.4-16.7-23-32-13.2-3.1,2-6.8,3.4-10.3,4.5-5.7,1.7-11.7,2.4-17.8,2.4h-18c-3.5,0-7-.3-10.4-.8-5.6-.9-13.4-2.7-18-6.1-14.3-10.6-32-2.3-32,13.2s19.5,34.3,65.5,35.8h7.4c54.2-1.7,65.5-16.4,65.5-35.8h0Z"/>
    <g class="st10">
      <g>
        <path class="st12" d="M80.3,203c-4.9,0-8.8-3.9-8.8-8.8v-11.5c0-1.2.9-2.1,2.1-2.1h13.6c1.2,0,2.1.9,2.1,2.1v11.5c0,4.9-3.9,8.8-8.8,8.8h-.2,0Z"/>
        <path class="st1" d="M87.2,182.7v11.5c0,3.7-3,6.7-6.7,6.7h-.2c-3.7,0-6.7-3-6.7-6.7v-11.5h13.6M87.2,178.5h-13.6c-2.3,0-4.2,1.9-4.2,4.2v11.5c0,6,4.9,10.9,10.9,10.9h.2c6,0,10.9-4.9,10.9-10.9v-11.5c0-2.3-1.9-4.2-4.2-4.2h0Z"/>
        <path class="st12" d="M104.6,210.5c-4.9,0-8.8-3.9-8.8-8.8v-11.5c0-1.2.9-2.1,2.1-2.1h13.6c1.2,0,2.1.9,2.1,2.1v11.5c0,4.9-3.9,8.8-8.8,8.8h-.2,0Z"/>
        <path class="st1" d="M111.5,190.2v11.5c0,3.7-3,6.7-6.7,6.7h-.2c-3.7,0-6.7-3-6.7-6.7v-11.5h13.6M111.5,186h-13.6c-2.3,0-4.2,1.9-4.2,4.2v11.5c0,6,4.9,10.9,10.9,10.9h.2c6,0,10.9-4.9,10.9-10.9v-11.5c0-2.3-1.9-4.2-4.2-4.2h0Z"/>
        <path class="st12" d="M152.5,210.9c-4.9,0-8.8-3.9-8.8-8.8v-11.5c0-1.2.9-2.1,2.1-2.1h13.6c1.2,0,2.1.9,2.1,2.1v11.5c0,4.9-3.9,8.8-8.8,8.8h-.2,0Z"/>
        <path class="st1" d="M159.3,190.6v11.5c0,3.7-3,6.7-6.7,6.7h-.2c-3.7,0-6.7-3-6.7-6.7v-11.5h13.6M159.3,186.4h-13.6c-2.3,0-4.2,1.9-4.2,4.2v11.5c0,6,4.9,10.9,10.9,10.9h.2c6,0,10.9-4.9,10.9-10.9v-11.5c0-2.3-1.9-4.2-4.2-4.2h0Z"/>
        <path class="st12" d="M176.8,203.7c-4.9,0-8.8-3.9-8.8-8.8v-11.5c0-1.2.9-2.1,2.1-2.1h13.6c1.2,0,2.1.9,2.1,2.1v11.5c0,4.9-3.9,8.8-8.8,8.8h-.2,0Z"/>
        <path class="st1" d="M183.6,183.4v11.5c0,3.7-3,6.7-6.7,6.7h-.2c-3.7,0-6.7-3-6.7-6.7v-11.5h13.6M183.6,179.2h-13.6c-2.3,0-4.2,1.9-4.2,4.2v11.5c0,6,4.9,10.9,10.9,10.9h.2c6,0,10.9-4.9,10.9-10.9v-11.5c0-2.3-1.9-4.2-4.2-4.2h0Z"/>
        <path class="st12" d="M128.9,212.2c-4.9,0-8.8-3.9-8.8-8.8v-11.5c0-1.2.9-2.1,2.1-2.1h13.6c1.2,0,2.1.9,2.1,2.1v11.5c0,4.9-3.9,8.8-8.8,8.8h-.2,0Z"/>
        <path class="st1" d="M135.7,191.9v11.5c0,3.7-3,6.7-6.7,6.7h-.2c-3.7,0-6.7-3-6.7-6.7v-11.5h13.6M135.7,187.7h-13.6c-2.3,0-4.2,1.9-4.2,4.2v11.5c0,6,4.9,10.9,10.9,10.9h.2c6,0,10.9-4.9,10.9-10.9v-11.5c0-2.3-1.9-4.2-4.2-4.2h0Z"/>
      </g>
    </g>
    <path class="st1" d="M126.7,245.7c-43.3-1.4-68.1-16-68.1-40s4.3-15.6,11.6-19.2c7.8-3.8,17-2.6,24.6,3.3,3.2,2.5,9.2,4.6,16.8,5.8,3.2.5,6.5.8,9.9.8h18c6.1,0,11.8-.8,17-2.4,3.8-1.2,7-2.6,9.6-4.3,8.4-5.7,18-6.6,25.5-2.6,6.6,3.5,10.5,10.5,10.5,18.5,0,18.7-8.1,38-68.1,40h-7.5,0ZM79.5,189.6c-2.5,0-4.9.5-7.1,1.6-5.4,2.7-8.7,8.1-8.7,14.5,0,20.8,23,33.5,63,34.8h7.3c55.3-1.8,62.9-17.8,62.9-34.8s-2.8-11.3-7.8-13.9c-5.8-3.1-13.4-2.2-20.2,2.3-3,2-6.7,3.7-11,5-5.7,1.7-12,2.6-18.6,2.6h-18c-3.7,0-7.4-.3-10.8-.9-6-1-14.2-3-19.2-6.9-3.8-2.9-8-4.4-12-4.4h0Z"/>
    <path class="st2" d="M175.2,236.6c.3,0,1.6-11.8-6.3-17.1-10.3-7-28.5-2-38.8,6.7-6.1-7.4-21.2-12.1-32.5-9-7.3,2-13.1,7.2-13.8,17,0,0,38.6,17,91.4,2.5h0Z"/>
    <path class="st1" d="M132.1,245.5c-29.4,0-48.4-8.2-49.5-8.7-1.2-.5-1.9-1.7-1.8-3,.7-10.1,6.5-17.1,16-19.7,11.1-3,25.7.6,33.6,7.9,11.6-8.4,29.6-12.4,40.2-5.1,8.1,5.5,8.3,16.3,7.7,19.7-.3,1.9-1.4,2.7-2.3,2.9h0c-16.2,4.5-31.1,6-43.9,6h0ZM87.1,232.1c8.5,3.1,42,13.4,85.3,2.1,0-2.9-.7-9.1-5.2-12.2-8.9-6.1-25.7-1.5-35.1,6.5-.6.5-1.4.8-2.2.7-.8,0-1.6-.5-2.1-1.1-5.1-6.2-18.7-10.9-29.4-8-6.4,1.7-10.2,5.8-11.3,12h0ZM175.2,236.6h0ZM174.4,233.6h0Z"/>
    <path class="st12" d="M222.6,226.5l.8,29.8c0,.3-.2.6-.5.6h-.8c0,0-.2,0-.2,0h-.2c-29.1,4.3-62.8,6.4-92.3,6.4s-62.4-2.2-91.7-6.4h-.3s-.5,0-.5,0h-.2c0,0-.2,0-.2,0-.3,0-.5-.2-.5-.6l.6-29.8h-5.1l-.6,29.8c0,3.3,2.5,6,5.6,6h.5c29.7,4.3,62.6,6.5,92.4,6.5s63.6-2.2,93-6.5h.5c3.1,0,5.6-2.7,5.6-6.1l-.8-29.8h-5.2Z"/>
    <path class="st13" d="M72.6,48.5l-.2,18h19.9l-.3-14.3c2.2-2.7,1.1-6.5,1.2-13.5,0-10.9,15-15.5,10.4-17.5l-13.4-10.1c-1.7-.7-18.6,0-20,.2-4.2.6-6.9,5.7-5.8,17,.9,9.5,4.5,15.8,8.2,20.3h0Z"/>
    <path class="st17" d="M101,19.1l-10.8-8.1c-1.7-.7-18.6,0-20,.2-2.8.4-5,2.9-5.7,7.9h36.5Z"/>
    <polygon class="st19" points="66.2 38.4 85.2 38.4 90.3 46.2 67.4 46.2 66.2 38.4"/>
    <path class="st5" d="M91.3,65l.2-17.2-.3-.4c-4.6-5.6-7.2-12-7.9-19.5-.8-8.4.6-12.1,1.9-13.8.9-1.2,2-1.8,3.4-1.8s1,0,1.5.2c1.3.3,4.1,1.8,5.1,2.4l10,5.1c4,1.7,7.9,8.1,7.8,18.4,0,7-1.2,8.9-3,11.1l-.3.4.7,15h-19.1,0Z"/>
    <path class="st7" d="M88.6,13.8c.3,0,.7,0,1.1.2.9.2,3.4,1.5,4.7,2.2h.1c0,0,10,5.1,10,5.1h0c0,0,0,0,0,0,3.3,1.5,6.9,7.4,6.8,17,0,6.6-1,8.2-2.7,10.2l-.7.9v1.1c0,0,.7,13,.7,13h-16.1v-15.2c.1,0,.1-1.1.1-1.1l-.7-.8c-4.5-5.4-6.9-11.4-7.5-18.7-.7-8.3.7-11.5,1.7-12.7h0c.6-.9,1.3-1.2,2.2-1.2M88.6,10.9c-1.8,0-3.4.8-4.6,2.3-2,2.5-3,7.3-2.3,14.8.9,9.5,4.5,15.8,8.2,20.3l-.2,18.2h22.2l-.8-16c2.2-2.7,3.3-5,3.3-12,0-10.9-4.1-17.8-8.6-19.7l-10-5.1s-3.7-2.1-5.4-2.5c-.6-.2-1.3-.2-1.9-.2h0Z"/>
    <g class="st21">
      <path class="st19" d="M116.9,60.3h-49.2v8.5h49.9c-.1-3.9-.2-4.6-.7-8.5h0Z"/>
    </g>
    <path class="st1" d="M83.5,10.8c1.8,0,3.5,0,5,.1h.2c.6,0,1.2,0,1.8.2,1.7.5,5.4,2.5,5.4,2.5l10,5.1c4.5,1.9,8.7,8.9,8.6,19.7,0,7-1.1,9.3-3.3,12l.8,16h-39.5l.2-18c-3.7-4.5-7.3-10.8-8.2-20.3-1-11.2,1.6-16.3,5.8-17,.9-.1,7.4-.5,13.3-.5M83.5,3.7h0c-5.8,0-12.8.3-14.3.6-2.8.4-7.8,2.1-10.5,9-1.5,4-2,9.1-1.4,15.6.7,8.4,3.4,15.6,8.1,22.1l-.2,15.5c0,1.9.7,3.7,2.1,5.1,1.3,1.4,3.1,2.1,5,2.1h39.5c1.9,0,3.8-.8,5.1-2.2,1.3-1.4,2.1-3.3,1.9-5.3l-.6-13.6c2.3-3.7,3.1-7.7,3.2-14.1.1-12.6-4.7-22.6-12.6-26.2l-9.7-4.9c-1.4-.8-4.7-2.5-7-3.1-1.2-.3-2.4-.5-3.6-.5h0c-1.5,0-3.2-.1-5.1-.1h0Z"/>
    <path class="st13" d="M186.5,48.5l.2,18h-19.9l.3-14.3c-2.2-2.7-1.1-6.5-1.2-13.5,0-10.9-15-15.5-10.4-17.5l13.4-10.1c1.7-.7,18.6,0,20,.2,4.2.6,6.9,5.7,5.8,17-.9,9.5-4.5,15.8-8.2,20.3h0Z"/>
    <path class="st17" d="M158.1,19.1l10.8-8.1c1.7-.7,18.6,0,20,.2,2.8.4,5,2.9,5.7,7.9h-36.5Z"/>
    <polygon class="st19" points="192.9 38.4 173.9 38.4 168.8 46.2 191.7 46.2 192.9 38.4"/>
    <path class="st5" d="M148.7,65l.7-15-.3-.4c-1.8-2.3-2.9-4.2-3-11.1,0-10.4,3.8-16.7,7.7-18.4l10.1-5.1c1-.6,3.9-2.1,5.1-2.4.5-.1,1-.2,1.5-.2,1.4,0,2.5.6,3.4,1.8,1.3,1.7,2.7,5.4,2,13.8-.7,7.5-3.3,13.9-7.9,19.5l-.3.4.2,17.2h-19.1,0Z"/>
    <path class="st7" d="M170.5,13.8c.9,0,1.6.4,2.2,1.2h0c.9,1.3,2.4,4.5,1.7,12.8-.7,7.3-3.1,13.3-7.5,18.7l-.7.8v1.1l.2,15.2h-16.1l.6-13v-1.1c0,0-.6-.9-.6-.9-1.6-2-2.6-3.6-2.7-10.2,0-9.6,3.5-15.6,6.8-17h.2c0,0,10-5.2,10-5.2h.1c1.4-.8,3.8-2.1,4.7-2.3.4-.1.8-.2,1.1-.2M170.5,10.9c-.6,0-1.2,0-1.9.2-1.7.5-5.4,2.5-5.4,2.5l-10,5.1c-4.5,1.9-8.7,8.9-8.6,19.7,0,7,1.1,9.3,3.3,12l-.8,16h22.2l-.2-18.2c3.7-4.5,7.3-10.8,8.2-20.3.7-7.5-.3-12.3-2.3-14.8-1.2-1.6-2.8-2.3-4.6-2.3h0Z"/>
    <g class="st21">
      <path class="st19" d="M142.2,60.3h49.2v8.5h-49.9c.1-3.9.2-4.6.7-8.5h0Z"/>
    </g>
    <path class="st1" d="M175.6,10.8c5.9,0,12.3.3,13.3.5,4.2.6,6.9,5.7,5.8,17-.9,9.5-4.5,15.8-8.2,20.3l.2,18h-39.5l.8-16c-2.2-2.7-3.3-5-3.3-12,0-10.9,4.1-17.8,8.6-19.7l10-5.1s3.7-2.1,5.4-2.5c.6-.2,1.3-.2,1.8-.2h.2c1.5,0,3.2-.1,5-.1M175.6,3.7c-1.9,0-3.6,0-5.1.1h0c-1.2,0-2.4.2-3.6.5-2.3.6-5.5,2.3-7,3.1l-9.7,4.9c-7.9,3.6-12.7,13.6-12.6,26.2,0,6.4.9,10.4,3.2,14.1l-.6,13.6c0,1.9.6,3.8,1.9,5.3,1.3,1.4,3.2,2.2,5.1,2.2h39.5c1.9,0,3.7-.7,5-2.1,1.3-1.4,2.1-3.2,2.1-5.1l-.2-15.5c4.7-6.5,7.4-13.7,8.1-22.1.6-6.5.1-11.6-1.4-15.6-2.6-6.9-7.7-8.6-10.5-9-1.5-.2-8.6-.6-14.3-.6h0Z"/>
  </g>
</svg>