<svg xmlns="http://www.w3.org/2000/svg" id="Camada_8" viewBox="0 0 262.2 299"><defs><clipPath id="clippath"><ellipse cx="131.2" cy="175.3" rx="123.7" ry="122.9" style="fill:none"/></clipPath><style>.st1{fill:#55cbff}.st2{fill:#d6aa76}.st3{fill:#012442}.st6{fill:#ff8af9}.st8{fill:#e545a1}.st9{fill:#fff}.st10{fill:#ffff76}.st12{fill:#dbb5ea}.st14{fill:#ff5cb2}</style></defs><ellipse cx="131.7" cy="174.6" rx="123.7" ry="122.9" style="fill:#f29b3b"/><g style="clip-path:url(#clippath)"><path d="M218.8 350.3c-12.5 0-23.8-7.8-26.7-19.4-9.3-37.1-33.1-47.2-34.1-47.6.4.2.6.2.6.2l19.9-46.4c5.2 1.8 51.3 19.8 67.1 82.7 3.4 13.4-5.9 26.8-20.6 29.8-2 .4-4.1.6-6.1.6Z" class="st3"/><path d="M220 342.3c-8.3 0-15.9-5.2-17.8-12.9-10.7-42.6-44.3-57.3-44.6-57.5-9.2-3.8-13.3-13.6-9.2-21.9 4.1-8.4 14.9-12.1 24.1-8.4 2.1.8 50.4 21.2 65.3 80.4 2.2 8.9-3.9 17.8-13.8 19.9-1.4.3-2.7.4-4.1.4Z" class="st6"/><path d="M35.6 351.2c-2 0-4.1-.2-6.1-.6-14.8-3.1-24-16.4-20.6-29.8 15.8-62.9 65.8-84.5 71.1-86.3l19.9 46.4s-3.7 3.5-3.4 3.4c-1 .4-24.8 10.5-34.1 47.6-2.9 11.5-14.2 19.4-26.7 19.4Z" class="st3"/><path d="M34.4 343.1c-1.3 0-2.7-.1-4.1-.4-9.8-2-16-10.9-13.8-19.9 14.9-59.2 65.1-80.4 67.1-81.2l20.4 26.8.3.3c-1.4.6-41.5 19-52.2 61.5-1.9 7.7-9.5 12.9-17.8 12.9Z" class="st6"/><path id="peito" d="M208.7 351.6s-6.3-86.6-58-113.1l-56.6 2.2c-45.2 15.9-42.7 109.7-42.7 109.7z" class="st6"/></g><path d="M78.6 179.6c-12.6 0-22.9-10.2-22.9-22.7s10.3-22.7 22.9-22.7 22.9 10.2 22.9 22.7-10.3 22.7-22.9 22.7" class="st3"/><path d="M78.6 135.9c11.7 0 21.2 9.4 21.2 21s-9.5 21-21.2 21-21.2-9.4-21.2-21 9.5-21 21.2-21m0-3.4c-13.5 0-24.5 10.9-24.5 24.4s11 24.4 24.5 24.4 24.5-10.9 24.5-24.4-11-24.4-24.5-24.4" class="st3"/><path d="m26.5 114 19.3 136.3c29.8 23.3 134.6 30 164.8 0L229.9 114z" style="fill:#f9d4a2"/><path d="m47.9 140.7 7.3 114.6 9.7 4.4L58.3 139zM65.8 143.6l5.8 116.9 9.7 3.3-5-121.3zM84 145.4l4.3 119.3 9.7 2.2L94.5 145zM102.5 146.3l2.8 121.6 9.7 1-2.1-122.4zM131.8 154v-6.2h-.1v-.7l-10.4-.8.1 7.1-.6 118.2 9.8.1v-1.5h1.7zM194.8 140.4l-6.6 120.8 9.8-4.4 7.2-114.7zM171.8 265.3l9.7-3.3 5.8-117-10.4-1.1zM155.1 268.3l9.7-2.2 4.3-119.2-10.4-.5zM138.1 270.4l9.7-1.1 2.8-121.6-10.4.2z" class="st2"/><path d="m219.5 123-17.4 122.8c-12 9.8-37 15.6-67.9 15.6s-65.1-6.7-80.1-16.2L36.8 123h182.6m10.4-9H26.5l19.3 136.3c15.8 12.4 52.8 20.1 88.5 20.1s62.1-6 76.3-20.1L229.9 114Z" style="fill:#ffe7ca"/><path d="M134.3 273.6h-6.4c-36.2-.9-69.3-9-84.2-20.7-.7-.5-1.1-1.3-1.2-2.1L23.2 114.5c-.1-.9.1-1.9.8-2.6.6-.7 1.5-1.1 2.5-1.1h203.4c.9 0 1.8.4 2.5 1.1.6.7.9 1.7.8 2.6l-19.3 136.3c0 .7-.4 1.4-.9 1.9-13.4 13.3-42.5 21-78.6 21Zm-85.5-25.1c14.2 10.3 45.7 17.7 79.3 18.5 36.5.9 66.1-5.9 79.4-18.3l18.6-131.5H30.2l18.6 131.2Z" class="st3"/><path d="M129.3 46s77.5-2.9 108.7 56.4c.3.6.9 1.1 1.5 1.3 3.7 1.4 16.6 6.7 17.2 16.6.6 10.9-11.4 22.8-27.4 17.5-1.4-.5-4-1.9-4.5-.5-2.4 6.9-9.2 22.3-32.8 9.7-1.4-.7-3.1-.2-3.8 1.2-3.2 6.3-13.5 20.6-35.4 7.6-1.3-.8-3-.3-3.8 1-2.4 4.2-8.5 11.9-20.2 11.9h-.2c-11.6 0-17.3-7.6-19.6-11.7-.8-1.4-2.5-1.9-3.8-1.1-21.9 12.9-32.1-1.4-35.3-7.6-.7-1.4-2.4-1.9-3.8-1.2-23.6 12.6-29.4-2.7-31.8-9.6-.5-1.4-.4 0-1.8.6-16 5.3-31.7-6.8-31-17.7.6-9.9 13.5-15.3 17.2-16.6s1.2-.7 1.5-1.3c31.2-59.3 108.2-56.4 108.2-56.4h1Z" class="st14"/><path d="M47.9 110.5c38.3 19.7 124.3 14.8 167.5-4.4 4.3-1.9 5.6-7.5 2.8-11.4-40.4-54.3-140.8-53.8-179.7 2-2.7 3.9-1.2 9.6 3.1 11.3 2 .8 4 1.5 5.7 2.2.2 0 .3.1.5.2Z" class="st8"/><path d="M231.5 111.9c-.3-.1-.7-.3-1-.4-1.9-1-4.1-.9-6.1 0-42.6 21.4-92.7 21.6-139 19-16-.9-30.8-6.7-45.3-13.5-2.9-1.2-5.8-2.5-8.4-4.1s-4.5-1.4-6.6-.3c-5.5 2.7-11.5 6.3-8.5 11.3.4.6.8 1.1 1.3 1.5 4 3.2 10.1.7 15 0h1.2c8.6.4 8.7 7.7 13.2 13.9.2.3.4.5.6.8 9.6 9.9 23.4-12.1 32.2 4.1 1.8 3.7 5.1 8.1 10.6 8.1 4.8.8 11.2-5.4 16.9-5.6 10.7-.2 9.8 13.9 21 13.2h.2c12.1.3 10.9-13.4 21.5-13.2 5.7.2 12.2 6.5 17 5.7 5.5 0 8.8-4.4 10.6-8.1 8.9-16.3 22.5 5.8 32.2-4.1.2-.2.5-.5.7-.8 4.5-6.4 4.7-13.9 13.8-13.9 3.3 0 6.8 2 9.9 1.8 13.3-1.3 7.9-11.7-3-15.2Z" class="st8"/><path d="M131 45.9c11 0 74.9 2.4 102 56.4.3.6.8 1.1 1.4 1.3 3.6 1.4 15.8 6.7 16.4 16.6.5 8.6-6.1 15.6-16.3 15.6s-5.8-.5-9-1.6c-.3 0-.6-.1-.8-.1-1.1 0-2.1.7-2.5 1.8-1.7 5.1-6.7 15.6-18.3 15.6s-8.9-1.3-14.8-4.6q-.6-.3-1.2-.3c-1 0-1.9.5-2.4 1.5-2.2 4.4-7.7 12.9-18.1 12.9s-9.5-1.5-15.6-5.3c-.4-.3-.9-.4-1.3-.4-.9 0-1.8.5-2.3 1.4-2.3 4.2-8.1 11.9-19.2 11.9h-.2c-11.1 0-16.5-7.6-18.7-11.7-.5-.9-1.4-1.5-2.3-1.5s-.9.1-1.3.4c-6.1 3.8-11.3 5.2-15.6 5.2-10.4 0-15.9-8.5-18.1-12.9-.5-1-1.4-1.5-2.4-1.5s-.9.1-1.2.3c-5.8 3.3-10.7 4.6-14.8 4.6-11.6 0-16.6-10.5-18.3-15.6-.4-1.1-1.4-1.8-2.5-1.8-.3 0-.6 0-.8.1-3.2 1.1-6.3 1.6-9 1.6-10.2 0-16.7-7-16.3-15.6.5-9.9 12.8-15.3 16.4-16.6.6-.2 1.1-.7 1.4-1.3 27.1-54 90.5-56.4 101.5-56.4h4.2m0-7.7V46zh-4.3c-5.6 0-25.5.6-47.4 8.4C66.8 51.1 55.6 57.1 46 64.7c-11.3 8.9-20.3 19.8-27 32.5-6 2.7-18.7 9.7-19.4 22.7-.3 6.3 1.8 12.1 6 16.5 4.5 4.7 10.9 7.3 18.1 7.3s4.5-.2 6.8-.7c5 10.3 13.6 16.4 23.9 16.4s9.1-1.1 13.9-3.2c5.5 8.2 13.5 12.7 22.5 12.7s9.9-1.3 15.1-3.9c5.5 7.3 13.6 11.4 22.8 11.4h.2c9.3 0 17.5-4.1 23.2-11.5q7.95 3.9 15.3 3.9c9 0 17-4.6 22.5-12.7 4.9 2.1 9.6 3.2 13.9 3.2 10.2 0 18.9-6 23.9-16.4 2.3.5 4.5.7 6.8.7 7.2 0 13.6-2.6 18.1-7.3 4.2-4.4 6.3-10.3 6-16.5-.7-12.9-13.4-20-19.5-22.7-6.7-12.7-15.8-23.7-27.1-32.5-9.6-7.5-20.9-13.6-33.4-18.1-22-7.8-42-8.4-47.6-8.4Z" class="st3"/><path d="M177.7 230.2c-27.5 0-49.9-22.2-49.9-49.6s21.6-49.6 48.1-49.6h1.9c28 1.1 48.7 26.9 49.7 49.4.6 12.6-4.1 24.7-13.1 34.1-9.5 9.9-23 15.6-36.8 15.6Z" class="st9"/><path d="M175.9 134.5h1.7c25.4 1 45.4 24.7 46.4 46.1 1.2 25.4-20.8 46.1-46.4 46.1s-46.4-20.6-46.4-46.1 19.9-46.1 44.6-46.1m.1-6.9v7zc-13.9 0-26.9 5.6-36.7 15.9-9.6 10.1-15 23.3-15 37.2 0 29.3 24 53.1 53.4 53.1s29.2-6.1 39.4-16.7c9.7-10.1 14.7-23.1 14-36.7-.6-12.3-6.4-25.1-16-35.2-10.3-10.8-23.5-17-37.1-17.6z" class="st3"/><path d="M75.9 230.2C48.4 230.2 26 208 26 180.6S48.4 131 75.9 131s49.9 22.2 49.9 49.6-22.4 49.6-49.9 49.6" class="st9"/><path d="M75.9 134.6c25.6 0 46.4 20.6 46.4 46.1s-20.8 46.1-46.4 46.1-46.4-20.6-46.4-46.1 20.8-46.1 46.4-46.1m0-7c-29.4 0-53.4 23.8-53.4 53.1s24 53.1 53.4 53.1 53.4-23.8 53.4-53.1-24-53.1-53.4-53.1" class="st3"/><path d="M68.4 77.4c6.4-1.9 12.2-4.8 18.3-7.7 3-1.4 5.9-1.3 8.2-.2 7.5-3 15-6 22.4-9.3 18.4-8.1 36.6-18.2 56.3-23 .5-.2 1.1-.3 1.6-.5.4-3.1 5.4-10.9 1-16.6-13.5-17.5-82.6-9.6-82.6-9.6s17.4 16.4 15.8 16.9C89.5 34.1 77 35.7 70.3 42.5c-2.9 3-9.7 17.7-9.7 20.7 0 6.6 6.2 12.7 7.9 14.2Z" class="st9"/><path d="M185.6 36.5c-6.1.2-12.1-.3-18 1.4-13.1 3.6-25.7 10.6-37.8 16.9-12.2 6.4-24.4 11.6-37.4 16.1-11.6 4-22.1 5.8-34.3 7-1.7 3.7-6.6 13.7-6.4 15.6.5 5.2 10.4 10.3 10.4 10.3 32.7 9.7 70.8 9.8 114.3.8 0 0 20.5-3.1 25.6-15.6 0 0-4.8-13.2-13.7-17.1h-.4c1.8-2.1 6.1-8 8.3-20.9.3-1.5-4.4-11-10.6-14.3Z" class="st9"/><path d="M59.2 59.5s20.4.9 45.8-8.3c17.7-6.3 41.5-31.3 70.4-31.1l-.8 18.2s-20 1-41.5 18c-4.5 3.5-12.6 7-20.5 10.7C88.9 78.1 66 77.5 66 77.5s-7.3-6.2-6.8-18" class="st12"/><path d="M174.4 38.6c-.6 0-1.2-.2-1.8-.5-1.7-1-2.2-3.1-1.2-4.8 3.6-6.1 3.1-8.7 2.7-9.1-11.9-9.9-49.9-14.8-73.1-10.3 12.2 7.7 11.2 13.5 10.5 15.3s-2.7 2.7-4.5 2c-1.7-.7-2.6-2.5-2.1-4.3-.4-1.7-5.5-6.3-13.1-10.2-1.6-.8-2.5-2.4-2.3-4.1.1-1.7 1.3-3.2 3-3.7 22.3-7.3 69.9-3.6 86.2 10 1.9 1.6 5.7 6.6-1.2 18.1-.7 1.1-1.8 1.7-3 1.7Z" class="st3"/><path d="M64.9 77.9c-1.1 0-2.2-.5-2.9-1.5-1.3-1.9-3.7-7.7-4.2-8.9-3.2-7.9-2.9-8.7-2.5-9.9 3.3-8.7 13.5-21.4 17.5-23.8.7-.4 1-.5 5.2-1.2 7.7-1.4 28.2-5 35.5-9.1 1.7-.9 3.8-.3 4.8 1.3.9 1.7.3 3.8-1.3 4.8-7.4 4.1-23.2 7.3-37.7 9.9-1.3.2-2.6.5-3.2.6-2.6 2-10.7 11.6-13.9 19.2.8 2.8 4.5 11.7 5.6 13.2 1.1 1.6.7 3.8-.9 4.8-.6.4-1.3.6-2 .6" class="st3"/><path d="M141.6 110.9s27.9-18.7 50.5-21.9h9.4c0-.1-1.9 12.3-16.8 17.2-1.4.5-43.1 4.7-43.1 4.7M119.7 79.7c21.2-8 54.3-27.3 76.2-21.9 1.4.4-5.1 13.6-5.5 15.2-23.5-.5-60.2 26.3-82.5 32.6-12.3 3.5-13.6 2.2-26.2 3-4.9.3-17.3-2.6-21.8-4.7s-11.5-8.2-5.3-11.1c2.5-1.1 14.6-.3 29-2.9 14.5-2.6 22.3-5.1 36.2-10.4Z" class="st12"/><path d="M124 115.3c-21.7 0-43.2-2.2-62.2-6.5l-.9-.2-.7-.7C48.1 96.3 48 93.4 48 92.2c0-.9 0-2.3 3.9-10.1 3.9-7.6 4.3-7.8 5.2-8.3 2.7-1.5 5.8-2 8.8-2.5l1.2-.2c1.9-.3 3.7.9 4.1 2.8.3 1.9-1 3.7-2.9 4l-1.3.2c-2.2.4-4.2.7-5.8 1.4-1.5 2.5-5.3 9.8-6.1 12.3 1.1 1.9 5.3 6.5 9.3 10.3 36.5 8.2 84.2 8.1 121.9-.3.9-.3 8.3-3.1 12.6-12.1-.4-.8-.7-1.7-1.2-2.9-1.6-4-4.3-10.7-8.1-12.6-1.7-.9-2.5-2.9-1.6-4.7.9-1.7 3-2.4 4.7-1.6 6.3 3.1 9.6 11.3 11.6 16.2.4 1.1.9 2.3 1.2 2.7.9 1.5 1 3.3.3 4.8-5.8 13.1-17 16.6-17.5 16.7h-.2c-19.9 4.5-42 6.7-63.9 6.7Z" class="st3"/><path d="m194 73.1-5.1-4.8-.1.1s2.1-2.7 4.8-12.8c-1.2-3.2-7.6-13-10.1-14.8-2.3-.3-11.1-1.4-16.8.1-1.9.5-3.8-.6-4.3-2.5s.6-3.8 2.5-4.3c8.1-2.2 19.9-.2 20.4-.2h.4l.4.2c2.5 1.1 5.6 4.6 9.5 10.5 5.8 9 5.3 10.8 5.1 11.8-3.2 12.3-5.8 15.7-6.6 16.5Z" class="st3"/><path d="M100 87.1c-3.4 0-7.6-3.9-10.5-7.6-2.9-3.8-9.5-14-6.2-26 .2-.8.9-1.5 1.8-1.7.1 0 3.2-.7 8.2-.7 7.3 0 18.3 1.4 29.7 8.2.9.5 1.3 1.5 1.1 2.5 0 .3-1.5 6.2-5 12.3-4.9 8.4-11.4 12.9-18.9 13Z" class="st10"/><path d="M93.3 53.4c6.9 0 17.5 1.3 28.5 7.9 0 0-5.5 23.2-21.7 23.4-4.6 0-18.7-14.9-14.4-30.7 0 0 2.9-.6 7.7-.6m-.1-4.6c-5.1 0-8.3.7-8.7.7-1.7.4-3.1 1.7-3.5 3.3-3.5 13 3.4 24 6.6 28.1 1.5 2 7 8.5 12.3 8.5h.1c8.4-.1 15.6-5 20.9-14.1 3.7-6.4 5.2-12.6 5.3-12.9.5-2-.4-4-2.1-5-11.8-7.1-23.3-8.6-30.9-8.6" class="st3"/><path d="M97.7 55.4c-.4 3.6-1.3 14.5 1.1 21.2.4 1.2 2 1.4 2.7.3 2.3-3.5 6.4-11.1 7.2-20.2s-.4-1.3-1-1.5c-3-1-5.8-1.4-8.6-1.2-.7 0-1.3.6-1.4 1.3ZM121.1 95c-.7 0-1.4-.2-2-.6-1.7-1.1-2.2-3.4-1.1-5.1 3.3-5.1 7.1-7.8 11.1-8 4.2-.2 8.1 2.2 12 7.3 1.2 1.6.9 3.9-.7 5.1s-3.9.9-5.2-.7c-2.2-2.9-4.2-4.5-5.8-4.4-1.5 0-3.3 1.7-5.2 4.6-.7 1.1-1.9 1.7-3.1 1.7Z" class="st3"/><path d="M158.1 88.3c-7.5-.1-14.1-4.6-18.9-13-3.5-6.1-5-12-5-12.3-.2-1 .2-2 1.1-2.5 11.4-6.8 22.4-8.2 29.7-8.2s8 .7 8.2.7c.9.2 1.5.8 1.8 1.7 3.3 12-3.3 22.2-6.2 26-2.8 3.7-7.1 7.6-10.5 7.6Z" class="st10"/><path d="M164.9 54.6c4.7 0 7.7.6 7.7.6 4.3 15.8-9.8 30.7-14.4 30.7-16.2-.2-21.7-23.4-21.7-23.4 11-6.6 21.6-7.9 28.5-7.9m-.1-4.6c-7.6 0-19.1 1.5-30.9 8.6-1.7 1-2.6 3.1-2.1 5 0 .3 1.6 6.5 5.3 12.9 5.3 9.1 12.6 14 20.9 14.1 5.3 0 10.8-6.5 12.3-8.5 3.2-4.1 10.1-15 6.6-28.1-.5-1.7-1.8-3-3.5-3.3-.4 0-3.6-.7-8.7-.7Z" class="st3"/><path d="M160.5 56.6c.4 3.6 1.3 14.5-1.1 21.2-.4 1.2-2 1.4-2.7.3-2.3-3.5-6.4-11.1-7.2-20.2 0-.7.4-1.3 1-1.5 3-1 5.8-1.4 8.6-1.2.7 0 1.3.6 1.4 1.3Z" class="st3"/><path d="M129.3 68.5c-1 0-2-.4-2.7-1.1-14.5-13-43-12.4-43.3-12.3-2.2 0-4.1-1.7-4.2-3.9 0-2.2 1.7-4.1 4-4.2 1.2 0 28.7-.7 46.1 12 5.6-4.5 19.6-12.5 48.1-12.1 2.3 0 4.1 1.9 4 4.1 0 2.2-1.9 4-4.1 4-17.8-.3-29 3-35.3 5.8-6.7 3-9.2 6.1-9.3 6.1-.7.9-1.7 1.4-2.9 1.6z" class="st3"/><path d="M127.2 253.1c-13.2 0-17.2-17.8-18.2-23.3-.3-1.7.4-3.5 1.8-4.5 3.3-2.5 8.6-3.8 15-3.8s11.4 1.1 15.5 2.8c1.9.8 3.1 2.8 2.8 4.9-.7 5.6-3.8 23.9-16.9 23.9" style="fill:#9b1f69"/><path d="M125.8 223.6c5.3 0 10.7 1 14.6 2.7 1 .4 1.6 1.5 1.5 2.6-.6 5.5-3.5 22-14.7 22s-15.2-16.5-16-21.4c-.2-.9.2-1.8.9-2.4 3.2-2.4 8.3-3.4 13.7-3.4m0-4.5c-4.8 0-11.6.7-16.3 4.3-2.1 1.5-3.1 4.1-2.6 6.7 1 5.9 5.5 25.1 20.4 25.1s17.2-9.7 19.1-25.8c.4-3.1-1.3-5.9-4.1-7.1-4.5-1.9-10.5-3-16.4-3Z" class="st3"/><path d="M127.2 252.4c-5 0-9.2-2.7-12.4-8.1-.4-.6-.5-1.3-.3-2s.6-1.2 1.3-1.6c1.7-1 3.5-1.5 5.3-1.5 2.8 0 5 1.3 6.2 2.1 1.7-1.2 4.8-2.3 7.2-2.3s2.7.3 3.8 1c1.2.8 1.7 2.2 1.2 3.5v.1c-2.9 5.7-7.2 8.8-12.3 8.8" class="st14"/><path d="M134.5 240.7c1.1 0 2.1.2 3 .7.4.3.8.8.5 1.5-2.2 4.4-5.6 7.9-10.8 7.9s-8.6-3.2-11.1-7.3c-.3-.5-.1-1.1.4-1.4 1.7-1 3.2-1.3 4.6-1.3 3.7 0 6.1 2.6 6.3 2.6.4-.9 3.9-2.7 7.1-2.7m0-3.1c-2.3 0-5.1.8-7.2 2-1.4-.9-3.6-1.8-6.2-1.8-2.1 0-4.1.6-6.2 1.7-1 .5-1.7 1.5-2 2.5-.3 1.1-.1 2.3.5 3.3 4.4 7.3 9.9 8.8 13.8 8.8s9.6-1.7 13.7-9.6v-.2c.8-2 0-4.3-1.8-5.4-1.3-.8-2.9-1.2-4.6-1.2Z" class="st3"/><ellipse cx="75.9" cy="181.2" class="st1" rx="30.8" ry="30.6"/><path d="M75.9 214.2c-18.3 0-33.3-14.8-33.3-33.1S57.5 148 75.9 148s33.3 14.8 33.3 33.1-14.9 33.1-33.3 33.1m0-61.1c-15.6 0-28.3 12.6-28.3 28.1s12.7 28.1 28.3 28.1 28.3-12.6 28.3-28.1-12.7-28.1-28.3-28.1" class="st3"/><path d="M75.9 164.2c-9.3 0-16.8 7.6-16.8 16.9S66.6 198 75.9 198s16.8-7.6 16.8-16.9-7.5-16.9-16.8-16.9" class="st3"/><ellipse cx="178.4" cy="181.2" class="st1" rx="30.8" ry="30.6"/><path d="M178.4 214.2c-18.3 0-33.3-14.8-33.3-33.1S160 148 178.4 148s33.3 14.8 33.3 33.1-14.9 33.1-33.3 33.1m0-61.1c-15.6 0-28.3 12.6-28.3 28.1s12.7 28.1 28.3 28.1 28.3-12.6 28.3-28.1-12.7-28.1-28.3-28.1" class="st3"/><path d="M178.4 164.2c-9.3 0-16.8 7.6-16.8 16.9s7.5 16.9 16.8 16.9 16.8-7.6 16.8-16.9-7.5-16.9-16.8-16.9" class="st3"/><circle cx="76" cy="178.2" r="6.6" class="st9"/><circle cx="178.4" cy="178.2" r="6.6" class="st9"/></svg>