<svg xmlns="http://www.w3.org/2000/svg" width="84" height="84" fill="none" viewBox="0 0 84 84"><path fill="#fff" d="M71.661 46.648c.19-.742.206-1.524.04-2.303l-1.327-6.08a4.98 4.98 0 0 0-3.634-3.798c1.503-1.06 2.52-2.766 2.693-4.566.178-1.844-.355-3.565-1.544-4.98-.714-.85-1.53-1.418-2.085-1.771 2.557-2.897 2.202-5.643 1.414-7.474-.677-1.578-2.065-2.896-3.712-3.521a7.8 7.8 0 0 0-2.763-.527c-1.355 0-2.401.389-2.962.597-.343.127-.35.13-.665.13h-.103l-.186-.003c-1.991 0-3.816.732-5.302 2.1h-.123c-4.03-4.317-9.728-6.836-15.672-6.836S24.05 10.15 20.02 14.49l-.219-.002c-3.723 0-6.648 1.83-7.635 4.778a8.97 8.97 0 0 0-.285 4.701c-.152.27-.299.566-.426.889-1.383 3.464-.36 7.095 2.546 9.032.298.2.63.383 1.002.557a21.2 21.2 0 0 0 3.03 6.648c-5.35 5.245-8.058 12.133-9.264 16.12a9.05 9.05 0 0 0 3.557 10.13c9.525 6.517 20.41 6.849 22.496 6.849q.552 0 1.118-.016a5 5 0 0 0 1.327 1.344 5.05 5.05 0 0 0 2.855.862c.52 0 .967-.07 1.34-.142.469-.084 6.679-1.193 14.428-2.697 4.675-.908 8.399-1.634 11.072-2.156 1.515-.298 2.778-.546 3.662-.724.452-.09.807-.162 1.057-.215 3.662-.763 3.945-3.629 3.945-4.488v-.47L71.66 46.646z"/><path fill="#4ce0aa" d="M57.088 58.296c-1.847-6.1-7.561-19.702-21.797-19.817q-.045-.002-.09 0h-.09c-14.236.117-19.95 13.719-21.796 19.82a4.34 4.34 0 0 0 1.692 4.834c8.149 5.577 17.55 6.017 19.815 6.017 2.982 0 12.422-.443 20.573-6.017a4.34 4.34 0 0 0 1.692-4.835z"/><path fill="#00b585" d="M50.544 45.84c.154-.127-8.174-7.304-15.253-7.36q-.09 0-.18-.003c-5.988.05-10.836 3.368-14.018 7.364 1.616 2.127 15.494 11.558 29.451 0"/><path fill="#d05fff" d="M56.765 23.768c-1.13 0-2.21-.171-2.855-.274l-.29-.046c-.398-.06-.754-.279-.97-.603a1.28 1.28 0 0 1-.187-1.02c1.048-4.29 2.954-5.188 4.368-5.188h.075q.108.004.214.004c1.139 0 1.735-.221 2.259-.416.41-.152.836-.31 1.368-.31.364 0 .735.075 1.136.226.406.154.912.538 1.13 1.046.598 1.397-.34 2.344-.902 2.912-.324.33-.631.638-.715.967-.311 1.23-1.366 2.7-4.63 2.7z"/><path fill="#201255" d="M60.745 16.904c.228 0 .48.046.785.163.228.085.49.318.572.51.584 1.358-1.31 1.85-1.664 3.248-.397 1.57-2.065 1.952-3.673 1.952-1.243 0-2.45-.228-3.002-.31-.23-.032-.386-.223-.34-.407.597-2.445 1.695-4.434 3.408-4.434h.052l.237.002c2.167 0 2.722-.726 3.627-.726m-.002-1.978c-.71 0-1.267.206-1.712.373-.492.182-.954.355-1.915.355q-.092 0-.19-.002h-.1c-3.374 0-4.788 3.723-5.33 5.945a2.28 2.28 0 0 0 .327 1.807c.375.554.975.93 1.65 1.028q.12.017.28.044c.675.107 1.804.287 3.01.287 4.099 0 5.26-2.149 5.59-3.436.05-.107.296-.357.46-.524.59-.596 1.967-1.991 1.105-4-.294-.682-.956-1.302-1.688-1.58a4.2 4.2 0 0 0-1.487-.292z"/><path fill="#d05fff" d="M62.497 30.923c-.355 0-.675-.061-1.015-.125-.4-.075-.813-.153-1.377-.153-.39 0-.8.037-1.252.114q-.27.046-.544.046c-2.254 0-4.155-2.31-5.353-4.248a1.25 1.25 0 0 1-.11-1.112c.145-.383.463-.673.871-.796q.117-.036.272-.085c.866-.274 2.478-.783 4.092-.783 2.265 0 3.388 1.03 3.93 1.892.22.351.653.621 1.113.908.796.496 1.888 1.173 1.75 2.585-.05.516-.405 1.05-.883 1.334-.494.29-.968.425-1.494.425z"/><path fill="#201255" d="M58.079 24.77c1.224 0 2.405.338 3.092 1.43.809 1.289 2.85 1.486 2.717 2.87-.02.197-.204.458-.402.575-.368.217-.677.287-.99.287-.62 0-1.253-.279-2.393-.279-.404 0-.869.035-1.419.13a2 2 0 0 1-.377.033c-1.596 0-3.206-1.667-4.51-3.779-.106-.168-.014-.375.203-.44.689-.209 2.423-.827 4.079-.827m0-1.98c-1.767 0-3.474.54-4.39.829q-.15.047-.261.08a2.3 2.3 0 0 0-1.509 1.395 2.24 2.24 0 0 0 .193 1.983c1.934 3.129 4.02 4.717 6.197 4.717.237 0 .478-.02.71-.06.395-.068.75-.1 1.086-.1.472 0 .822.065 1.193.135.353.066.752.143 1.2.143.699 0 1.35-.184 1.993-.561.752-.441 1.29-1.264 1.37-2.092.195-2.022-1.373-2.998-2.212-3.522-.296-.184-.7-.434-.799-.592-.675-1.075-2.05-2.357-4.769-2.357z"/><path fill="#211256" d="M34.822 70.306c-1.9 0-11.815-.3-20.468-6.219a5.47 5.47 0 0 1-2.147-6.125c1.818-6.006 7.528-19.78 21.746-20.599v-.037h2.496v.04c14.218.817 19.928 14.593 21.748 20.6a5.47 5.47 0 0 1-2.147 6.125c-8.205 5.614-17.577 6.22-21.224 6.22zm.368-30.671h-.07c-13.525.11-18.981 13.32-20.698 18.994a3.17 3.17 0 0 0 1.239 3.546c8.091 5.535 17.38 5.815 19.16 5.815 3.435 0 12.248-.566 19.92-5.815a3.16 3.16 0 0 0 1.24-3.546c-1.718-5.675-7.174-18.884-20.699-18.994h-.092"/><path fill="#4ce0aa" d="M35.73 45.407c9.205 0 16.667-7.463 16.667-16.668S44.935 12.071 35.73 12.071 19.062 19.534 19.062 28.74s7.462 16.668 16.668 16.668"/><path fill="#211256" d="M35.73 46.564c-9.828 0-17.826-7.997-17.826-17.825s7.997-17.825 17.826-17.825c9.828 0 17.825 7.997 17.825 17.825S45.558 46.564 35.73 46.564m0-33.337c-8.554 0-15.512 6.958-15.512 15.512s6.958 15.512 15.512 15.512 15.512-6.958 15.512-15.512-6.958-15.512-15.512-15.512"/><path fill="#d05fff" d="M36.438 32.603c-5.923 0-17.68-1.305-19.913-2.794-1.103-.737-1.427-2.099-.844-3.559.145-.364.401-.735.65-1.092.126-.184.247-.357.326-.493.14-.244.105-.43-.092-1.062-.235-.752-.557-1.782-.088-3.186.52-1.552 2.673-1.673 3.32-1.673.217 0 .535.011.816.068.33.068.603.279.743.579.162.347.103.673-.009.958 1.925.401 6.982 1.312 13.126 1.312 9.342 0 14.184-.851 16.036-1.283l-.05-.068-.362-.463.261-.553c.287-.59.954-.59 1.173-.59.259 0 .954.038 1.82.376.57.221 1.257.574 1.511 1.335.47 1.403.147 2.434-.087 3.186-.198.632-.233.818-.09 1.062.078.136.2.309.326.493.248.357.505.728.65 1.092.583 1.46.258 2.822-.845 3.559C52.6 31.285 42.69 32.6 36.436 32.6z"/><path fill="#201255" d="M51.533 19.667c.32 0 .856.07 1.472.31.445.173.829.383.951.747.715 2.132-.864 3.1-.098 4.423.252.437.745 1.03.916 1.46.356.889.334 1.858-.486 2.406-1.851 1.235-11.252 2.634-17.848 2.634s-17.529-1.397-19.38-2.634c-.82-.546-.84-1.517-.486-2.405.17-.428.662-1.022.916-1.46.765-1.323-.813-2.292-.099-4.424.268-.796 1.544-1.02 2.413-1.02.256 0 .478.02.624.051.233.046-.16.548-.304.921a.326.326 0 0 0 .228.436c1.451.345 7.085 1.509 14.124 1.509 10.714 0 15.786-1.11 17.193-1.557a.328.328 0 0 0 .165-.51l-.612-.825c-.024-.031.092-.064.31-.064m.001-1.916c-1.23 0-1.785.614-2.037 1.129-.12.245-.182.513-.19.778-2.288.437-6.899 1.046-14.83 1.046-5.3 0-9.772-.686-12.074-1.12a2 2 0 0 0-.175-.597 1.99 1.99 0 0 0-1.424-1.111 5.3 5.3 0 0 0-1.004-.088c-2.16 0-3.74.87-4.23 2.326-.568 1.698-.162 3 .081 3.777.04.125.09.285.117.392-.062.094-.143.213-.224.329-.265.384-.568.818-.752 1.283-.75 1.877-.277 3.725 1.204 4.712 1.723 1.15 7.067 1.853 8.823 2.085 4.07.538 8.524.87 11.622.87 5.831 0 16.341-1.24 18.913-2.955 1.48-.987 1.952-2.838 1.204-4.712-.186-.465-.487-.9-.752-1.283a13 13 0 0 1-.224-.329c.027-.107.077-.267.117-.392.243-.779.649-2.08.08-3.777-.431-1.284-1.666-1.767-2.072-1.925-.982-.384-1.78-.44-2.168-.44z"/><path fill="#d57bff" d="M17.396 21.11c.416 4.318 39.087 4.802 36.604-.476-.307-.765-2.122-1.15-2.774-.995a.052.052 0 0 0-.028.085c.17.187.625.816.625.816-.441 1.28-6.748 1.73-17.301 1.993-7.04 0-12.673-1.164-14.127-1.508-.62-.119.237-1.292.077-1.358-1.09-.098-2.997.016-3.136 1.323q.047.052.062.125z"/><path fill="#fff" d="M42.83 17.795c.375-.919-.385-2.097-1.697-2.633s-2.679-.225-3.054.693.385 2.097 1.697 2.632c1.311.536 2.679.226 3.054-.692"/><path fill="#211256" d="M41.497 36.576a1.387 1.387 0 0 0-1.913-.42c-3.986 2.547-7.672.124-7.826.019a1.384 1.384 0 0 0-1.557 2.287c.244.167 2.467 1.625 5.555 1.625 1.868 0 3.657-.54 5.32-1.601.642-.41.83-1.267.42-1.912z"/><path fill="#9c69ff" d="M19.08 25.538s-1.114-.262-2.013-.722z"/><path fill="#201255" d="M19.082 26.498a1 1 0 0 1-.22-.026c-.05-.011-1.24-.294-2.232-.803a.957.957 0 0 1-.414-1.291.957.957 0 0 1 1.291-.415c.779.4 1.783.64 1.794.642a.96.96 0 0 1-.217 1.895z"/><path fill="#9c69ff" d="M52.726 25.57s1.52-.315 2.026-1.3z"/><path fill="#201255" d="M52.724 26.53a.96.96 0 0 1-.197-1.898c.353-.077 1.15-.373 1.37-.798a.96.96 0 0 1 1.292-.415c.471.241.657.82.414 1.292-.695 1.353-2.482 1.758-2.684 1.8a1 1 0 0 1-.195.02"/><path fill="#9c69ff" d="M66.903 45.602a.5.5 0 0 0 .399-.595l-1.329-6.091a.495.495 0 0 0-.577-.384l-30.469 5.524a.497.497 0 0 0-.397.587l5 26.292c.132.704.41.717 1.112.584 0 0 30.482-5.792 30.482-5.853l-4.221-20.062-28.651 4.92a.16.16 0 0 0-.132.185l.048.302L42 71.12"/><path fill="#6312d8" d="m39.681 43.365 1.434 6.93-2.712.587 3.864 20.295-2.046.488-.691-.73-5.111-26.759z"/><path fill="#5c5696" d="m38.06 50.792 3.768 20.395 29.114-5.767-3.917-19.656z"/><path fill="#424175" d="m40.615 50.448-2.23.291 3.768 20.396 2.199-.472c-.053-.136-3.877-20.147-3.737-20.215"/><path fill="#201255" d="M46.71 46.238c.127 1.482-.854 2.688-2.187 2.69s-2.517-1.197-2.642-2.682c-.127-1.482.853-2.688 2.186-2.69s2.517 1.197 2.642 2.682M61.877 43.413c.127 1.483-.853 2.689-2.186 2.69-1.334.003-2.518-1.196-2.643-2.681-.125-1.484.853-2.688 2.187-2.69 1.333-.003 2.517 1.197 2.642 2.681"/><path fill="#fff" d="M45.382 47.97c-.765 0-1.469-.255-1.982-.717a1.82 1.82 0 0 1-.583-1.436c.024-.511.254-.952.647-1.24q.369-.27.772-.27c.412 0 .706.216.864.332.032.024.076.057.096.068q.05.025.088.04c.26-.67.129-1.608-.11-2.22-.162-.414-.485-.726-.612-.776q-.003 0-.006-.002l-.198.454-2.8.41-.02-.945c-.03-1.518.9-2.77 2.37-3.19a3 3 0 0 1 .85-.124c.916 0 1.789.441 2.523 1.277 1.08 1.225 2.108 4.067 1.018 6.547-.564 1.285-1.54 1.605-2.325 1.742q-.295.049-.592.05"/><path fill="#201255" d="M44.757 38.98c.759 0 1.454.379 2.055 1.063.868.987 1.914 3.607.914 5.883-.408.93-1.068 1.24-1.86 1.377a3 3 0 0 1-.484.042c-.6 0-1.164-.195-1.565-.557a1.2 1.2 0 0 1-.378-.938.98.98 0 0 1 .393-.766c.149-.11.283-.149.401-.149.206 0 .37.12.494.21.056.042.111.082.168.112.165.09.325.136.463.136a.5.5 0 0 0 .16-.024.5.5 0 0 0 .303-.291c.386-.851.226-2.027-.068-2.779-.209-.533-.634-1-.963-1.129a.9.9 0 0 0-.324-.075c-.22 0-.371.136-.498.43l-.046.108-1.752.256-.005-.237c-.024-1.225.728-2.236 1.917-2.574a2.5 2.5 0 0 1 .677-.099m-.002-1.252c-.337 0-.682.049-1.022.147-1.725.491-2.861 2.022-2.824 3.805l.004.237.029 1.418 1.403-.206 1.752-.256.503-.075c.105.283.175.638.19.976a1.8 1.8 0 0 0-.559-.09c-.399 0-.794.136-1.142.39a2.24 2.24 0 0 0-.901 1.713 2.46 2.46 0 0 0 .789 1.932c.63.565 1.482.877 2.401.877q.35 0 .697-.06c.5-.085 2.02-.348 2.792-2.107 1.2-2.734.068-5.863-1.12-7.214-.858-.974-1.893-1.487-2.994-1.487z"/><path fill="#fff" d="M60.546 45.306c-.765 0-1.47-.255-1.982-.717a1.82 1.82 0 0 1-.584-1.437c.024-.51.255-.951.647-1.239q.37-.27.772-.27c.412 0 .706.216.864.332.033.024.077.057.096.068q.05.025.088.04c.261-.67.13-1.608-.11-2.22-.162-.414-.484-.726-.611-.776q-.003 0-.007-.002l-.197.454-2.8.41-.02-.945c-.03-1.518.899-2.77 2.37-3.191a3 3 0 0 1 .849-.123c.917 0 1.79.44 2.524 1.276 1.079 1.226 2.107 4.068 1.017 6.55-.563 1.285-1.539 1.605-2.324 1.741q-.296.05-.592.05z"/><path fill="#201255" d="M59.92 36.313c.76 0 1.455.38 2.055 1.063.869.987 1.915 3.608.915 5.884-.408.93-1.068 1.239-1.86 1.377a3 3 0 0 1-.484.041c-.601 0-1.165-.195-1.566-.556a1.2 1.2 0 0 1-.377-.939.98.98 0 0 1 .392-.765c.15-.11.283-.15.402-.15.206 0 .37.121.493.211q.085.064.169.112c.164.09.325.136.463.136a.5.5 0 0 0 .16-.024.5.5 0 0 0 .302-.292c.386-.85.226-2.026-.068-2.778-.208-.533-.633-1-.962-1.13a.9.9 0 0 0-.325-.074c-.22 0-.37.136-.498.43l-.046.107-1.752.257-.004-.237c-.024-1.226.728-2.237 1.916-2.574a2.5 2.5 0 0 1 .678-.1m-.002-1.251c-.338 0-.682.048-1.022.147-1.726.491-2.862 2.022-2.824 3.804l.004.237.029 1.419 1.403-.206 1.752-.257.502-.074c.105.282.175.638.19.975a1.8 1.8 0 0 0-.558-.09c-.4 0-.794.137-1.143.39a2.24 2.24 0 0 0-.901 1.713 2.46 2.46 0 0 0 .79 1.932c.629.566 1.482.877 2.4.877q.351 0 .698-.059c.5-.085 2.02-.348 2.791-2.107 1.2-2.734.068-5.864-1.12-7.214-.858-.974-1.893-1.487-2.993-1.487z"/><path fill="#201255" d="M60.896 39.843a4 4 0 0 0-.465-.776 2 2 0 0 1-.08-.114L47.63 41.26c.17.287.307.596.408.914z"/><path fill="#201255" d="M67.916 45.992q.037-.045.07-.094a1.4 1.4 0 0 0 .206-1.084l-1.329-6.089a1.403 1.403 0 0 0-1.631-1.09l-1.592.285.075.421-.924.167q.24.443.421.912l2.272-.412s.011.002.013.009l1.327 6.1q-.001.002-.007.004l-28.495 5.28a.65.65 0 0 0-.529.742l.05.316 3.64 19.531c-.466.09-.493-.035-.929.05q-.365.07-.471.057a1 1 0 0 1-.073-.252l-5-26.291.01-.016 10.683-1.94c-.16-.327-.415-.601-.779-.768a1 1 0 0 1-.11-.061l-3.567.647-.075-.413-6.41 1.156a1.4 1.4 0 0 0-.911.596 1.4 1.4 0 0 0-.215 1.06l5 26.29c.065.348.203.846.655 1.152.237.16.509.24.833.24.217 0 .434-.033.687-.082.063-.01 6.44-1.147 14.398-2.69 4.67-.908 8.394-1.632 11.062-2.156 1.511-.296 2.768-.544 3.65-.719.442-.088.788-.158 1.028-.208.458-.097 1.087-.226 1.087-.974v-.094l-4.118-19.58zm-25.48 24.814-3.634-19.503 27.722-5.136 4.023 19.126c-2.885.592-17.76 3.51-28.112 5.513"/><path stroke="#201255" stroke-miterlimit="10" stroke-width="3.88" d="m56.355 39.7-7.821 1.43"/><path fill="#201255" d="M59.416 57.173c.82-.967 1.32-1.745 1.53-2.375a3.47 3.47 0 0 0 .097-1.927c-.324-1.353-1.166-2.346-2.506-2.958l-.31-.132c-1.091-.43-2.407-.495-3.909-.19-1.943.392-3.313 1.153-4.07 2.262a5.06 5.06 0 0 0-.848 2.307c-.06.513.116 1.024.477 1.401.371.384.89.581 1.426.54l1.399-.112a1.72 1.72 0 0 0 1.579-1.504q.037-.31.147-.483c.158-.243.386-.388.717-.454.21-.041.502-.07.693.04.096.055.212.153.28.432.042.169-.114.489-.416.86-.823 1.023-1.33 1.716-1.553 2.118a3.8 3.8 0 0 0-.45 1.361c-.054.439-.013.96.128 1.592l.072.33c.184.806.923 1.363 1.733 1.363q.174.001.35-.035c-.45.206-.829.53-1.098.952a2.5 2.5 0 0 0-.325 1.952c.29 1.208 1.412 2.041 2.634 2.041q.264 0 .533-.053a2.58 2.58 0 0 0 1.684-1.144 2.52 2.52 0 0 0 .326-1.952c-.282-1.182-1.361-2.002-2.552-2.04l.081-.015c.46-.092.853-.357 1.108-.745a1.67 1.67 0 0 0 .236-1.268L58.541 59a1.5 1.5 0 0 1 .027-.548c.044-.152.212-.52.848-1.277z"/><path fill="#fff" fill-rule="evenodd" d="M58.767 56.625c.74-.873 1.202-1.577 1.373-2.094.164-.498.19-.99.079-1.463-.285-1.184-1.037-2.002-2.3-2.497-.937-.371-2.09-.421-3.43-.15-1.72.347-2.908.99-3.535 1.908a4.26 4.26 0 0 0-.708 1.925c-.064.555.414 1.042.991.996l1.4-.112a.86.86 0 0 0 .8-.754c.039-.34.131-.62.278-.849.283-.436.706-.712 1.26-.824.518-.105.953-.057 1.288.138q.52.304.68.967c.11.458-.08.978-.58 1.59-.78.971-1.275 1.644-1.47 2a2.9 2.9 0 0 0-.35 1.054c-.04.336-.004.772.115 1.3l.072.325a.926.926 0 0 0 1.086.684l1.28-.258a.85.85 0 0 0 .678-1.016l-.062-.313-.017-.103a2.3 2.3 0 0 1 .057-.873c.114-.388.445-.908 1.015-1.585M58.91 63.6c.226.943-.38 1.869-1.351 2.066-.974.197-1.945-.41-2.173-1.353-.226-.945.377-1.868 1.35-2.066.974-.195 1.946.41 2.174 1.355" clip-rule="evenodd"/></svg>