<svg xmlns="http://www.w3.org/2000/svg" width="84" height="84" fill="none" viewBox="0 0 84 84"><g clip-path="url(#a)"><path fill="#fff" d="m81.713 43.966-.079-1.695-.866-1.375c-.314-.498-.901-1.178-1.599-1.906.106-.445.182-.936.22-1.48.03-.423.052-.965.072-1.653.037-1.439.048-3.465.028-5.162-.01-.9-.03-1.669-.057-2.23-.028-.603-.072-1.515-.394-2.504-.592-1.814-1.873-3.103-3.515-3.537l-23.18-5.307c-1.268-2.818-3.761-4.986-6.94-5.986-.913-1.402-2.37-2.31-4.007-2.31-1.638 0-3.096.91-4.006 2.312-3.16.998-5.647 3.153-6.92 5.951L8.14 22.395l-.125.033c-1.638.44-2.915 1.735-3.504 3.546-.32.987-.362 1.897-.39 2.5a68 68 0 0 0-.058 2.238c-.022 1.709-.008 3.741.029 5.176.017.68.041 1.212.072 1.633.048.693.16 1.303.314 1.835-.33.358-.638.715-.915 1.07L2.386 41.94l-.097 2.024c-.112 2.375.58 4.572 1.956 6.267a10 10 0 0 0-.08.765c-.03.425-.053.971-.071 1.666-.04 1.472-.05 3.555-.029 5.31.022 1.824.036 2.925.233 3.964.436 2.285 1.798 3.89 3.736 4.403l32.772 8.677q.601.159 1.217.16c.41 0 .824-.055 1.226-.162l32.293-8.68c1.645-.442 2.921-1.738 3.507-3.554.318-.989.36-1.92.388-2.535a73 73 0 0 0 .057-2.311c.02-1.774.009-3.87-.03-5.335a39 39 0 0 0-.071-1.627q0-.017-.002-.033.147-.161.285-.329c1.458-1.767 2.164-4.065 2.041-6.644z"/><path fill="#ffeb99" d="m9.14 60.826 32.782 8.68a.37.37 0 0 0 .195 0l32.292-8.68c.212-.057.204-9.883-.024-9.926l-32.292-6.311a.4.4 0 0 0-.147 0L9.164 50.902c-.23.044-.24 9.872-.024 9.929z"/><path fill="#211256" d="M42.019 70.55q-.182 0-.36-.047L8.876 61.824c-.791-.21-.822-.92-.864-1.905a74 74 0 0 1-.05-2.296c-.018-1.875 0-3.952.044-5.291.053-1.562.077-2.275.963-2.446l32.782-6.313q.272-.052.54 0l32.289 6.311c.881.173.907.915.958 2.39.046 1.33.064 3.413.046 5.311a76 76 0 0 1-.05 2.318c-.042.99-.07 1.706-.86 1.917l-32.291 8.679q-.182.049-.367.048zM10.076 60.005l31.94 8.456 31.454-8.454c.086-1.71.077-6.492-.013-8.242l-31.438-6.147-31.928 6.147c-.09 1.75-.098 6.526-.013 8.238z"/><path fill="#ea267f" d="M13.017 48.632v5.037c0 .336.14.636.36.765 1.789 1.066 10.141 5.399 22.48 1.851.274-.079.471-.421.471-.816V52.09c0-.228.064-.452.185-.603.541-.684 1.578-3.008-7.22-4.855-8.87-1.861-14.421.478-15.886 1.22-.235.118-.388.431-.388.782z"/><path fill="#211256" d="M26.515 58.7c-7.532 0-12.492-2.652-13.678-3.358-.54-.322-.875-.962-.875-1.673v-5.037c0-.76.37-1.42.967-1.723 1.568-.796 7.396-3.24 16.58-1.312 4.988 1.048 7.61 2.364 8.255 4.145.285.79.147 1.64-.381 2.342v3.386c0 .868-.507 1.62-1.235 1.828-3.537 1.018-6.771 1.4-9.63 1.4zm-12.444-5.081c1.831 1.05 9.71 4.936 21.2 1.734v-3.265c0-.476.147-.923.413-1.259.157-.2.116-.315.096-.373-.09-.25-.84-1.565-6.706-2.795-8.168-1.715-13.352.24-15.003 1.035z"/><path fill="#ea267f" d="M70.602 48.632v5.037c0 .336-.14.636-.36.765-1.789 1.066-10.141 5.399-22.48 1.851-.274-.079-.472-.421-.472-.816V52.09c0-.228-.063-.452-.184-.603-.542-.684-1.579-3.008 7.219-4.855 8.87-1.861 14.422.478 15.887 1.22.234.118.388.431.388.782z"/><path fill="#211256" d="M57.103 58.7c-2.862 0-6.094-.382-9.633-1.4-.726-.208-1.235-.96-1.235-1.828v-3.386c-.528-.702-.669-1.553-.381-2.342.645-1.78 3.267-3.096 8.256-4.145 9.183-1.927 15.012.516 16.58 1.312.596.302.967.962.967 1.723v5.037c0 .71-.336 1.351-.875 1.671-1.189.706-6.149 3.357-13.681 3.357zm-8.758-3.347c11.49 3.202 19.367-.684 21.2-1.734v-4.923c-1.654-.794-6.835-2.75-15.003-1.035-5.864 1.23-6.614 2.546-6.706 2.796-.02.054-.061.17.097.372.265.336.412.783.412 1.259z"/><path fill="#f7c657" d="m18.382 46.382 23.062 14.859c.533.337 1.14.348 1.678.03l24.746-15.35z"/><path fill="#211256" d="M42.304 62.53c-.487 0-.974-.14-1.412-.42L14.929 45.38l56.614-.526-27.878 17.292a2.66 2.66 0 0 1-1.361.384M21.838 47.38l20.165 12.993c.2.127.389.131.592.01l21.597-13.398-42.356.395z"/><path fill="#4ce0aa" d="M70.4 38.857H13.598c-.294.4-4.529 3.447-6.278 5.694-.198 4.154 6.313 3.912 8.672 3.474 13.8-4.787 11.936 2.721 23.205 4.587.526.088 1.059.13 1.59.138l2.047.033c.709.011 1.42-.041 2.123-.166 10.78-1.91 11.104-8.991 23.849-4.904 1.094.351 2.213.544 3.333.542 2.252-.004 4.68-.72 4.537-3.704-.335-.532-4.158-4.394-6.278-5.694z"/><path fill="#211256" d="M43.014 53.656h-.2l-2.047-.033a12 12 0 0 1-1.76-.154c-4.6-.76-7.2-2.464-9.292-3.833-3.15-2.06-5.423-3.55-13.35-.8l-.081.029-.086.015c-2.028.377-6.449.579-8.664-1.353-.953-.833-1.425-1.974-1.361-3.302l.017-.364.224-.288c1.291-1.66 3.774-3.662 5.258-4.859.42-.338.89-.72 1.033-.853l.31-.423H70.72l.276.169c2.163 1.324 6.154 5.273 6.65 6.06l.16.255.015.3c.065 1.377-.31 2.505-1.117 3.349-.98 1.028-2.515 1.55-4.565 1.555h-.017c-1.202 0-2.437-.202-3.67-.597-7.44-2.386-10.167-.84-13.943 1.3-2.382 1.351-5.08 2.882-9.355 3.638-.697.123-1.416.187-2.142.187zM23.522 45.04c3.362 0 5.316 1.279 7.45 2.678 2.01 1.315 4.288 2.807 8.41 3.49.444.073.922.115 1.42.123l2.048.033a10 10 0 0 0 1.905-.149c3.888-.688 6.296-2.054 8.624-3.374 3.959-2.246 7.377-4.184 15.776-1.49a9.8 9.8 0 0 0 2.969.487h.013c.962 0 2.247-.149 2.907-.842.303-.318.463-.747.487-1.309-.813-.92-3.692-3.76-5.47-4.951H14.05c-.208.18-.504.419-.938.767-1.311 1.057-3.443 2.779-4.642 4.182.044.458.23.82.572 1.118 1.336 1.167 4.664 1.196 6.657.843 3.327-1.147 5.822-1.6 7.822-1.6zM12.68 37.9l-.007.01z"/><path fill="#ffd15f" d="m74.406 27.936-33.168-7.589a.37.37 0 0 0-.195 0L9.14 27.94c-.213.057-.204 9.61.024 9.654l32.291 6.311a.4.4 0 0 0 .147 0l32.782-6.313c.23-.044.24-9.6.025-9.655z"/><path fill="#ffeb99" d="m74.406 27.936-33.168-7.589a.37.37 0 0 0-.195 0L9.14 27.94c-.213.057-.204 9.61.024 9.654l32.291 6.311a.4.4 0 0 0 .147 0l32.782-6.313c.23-.044.24-9.6.025-9.655z"/><path fill="#f7c657" d="m40.984 35.309 34.175-6.353-33.92-8.063c-.064-.018-.135.257-.196.272L8.936 28.603z"/><path fill="#211256" d="M41.527 44.944q-.136 0-.272-.027l-32.289-6.31c-.883-.174-.91-.924-.96-2.421a133 133 0 0 1-.044-5.142c.009-.906.026-1.676.05-2.226.042-.967.073-1.664.86-1.875l.029-.007 31.894-7.587c.226-.057.463-.057.686 0l33.189 7.594c.791.208.822.94.864 1.868.024.546.041 1.312.05 2.213.017 1.804 0 3.818-.042 5.131-.05 1.52-.076 2.28-.965 2.452L41.795 44.92q-.136.026-.268.026zM10.09 36.723l31.44 6.146 31.93-6.148c.092-1.704.101-6.243.015-7.938l-32.328-7.399-31.072 7.392c-.086 1.693-.077 6.243.015 7.947"/><path fill="#211256" d="M41.394 29.835a1.094 1.094 0 0 1-1.094-1.094v-4.798a1.094 1.094 0 0 1 2.188 0v4.798c0 .603-.489 1.094-1.094 1.094"/><path fill="#4ce0aa" d="M41.394 26.605c3.794 0 6.87-2.318 6.87-5.177 0-2.86-3.076-5.177-6.87-5.177s-6.87 2.318-6.87 5.177c0 2.86 3.075 5.177 6.87 5.177"/><path fill="#211256" d="M41.394 27.7c-4.392 0-7.965-2.814-7.965-6.272s3.572-6.271 7.965-6.271 7.964 2.813 7.964 6.271-3.572 6.272-7.964 6.272m0-10.355c-3.186 0-5.776 1.831-5.776 4.083s2.592 4.083 5.776 4.083 5.776-1.83 5.776-4.083c0-2.252-2.592-4.083-5.776-4.083"/><path fill="#211256" d="M41.394 19.718a1.094 1.094 0 0 1-1.094-1.094v-4.077a1.094 1.094 0 0 1 2.188 0v4.076c0 .604-.489 1.095-1.094 1.095"/></g><defs><clipPath id="a"><path fill="#fff" d="M0 0h84v84H0z"/></clipPath></defs></svg>