<svg xmlns="http://www.w3.org/2000/svg" width="84" height="84" fill="none" viewBox="0 0 84 84"><path fill="#fff" d="M80.244 58.966c-.295-2.016-1.421-5.973-3.271-10.265a63 63 0 0 0-.657-1.47L66.298 14.686l-.064-.206-.084-.197c-.718-1.716-2.35-2.824-4.158-2.824H19.455c-1.808 0-3.44 1.108-4.158 2.824l-.084.197-.063.206L3.875 51.308a4.81 4.81 0 0 0 .485 4.133c.841 1.325 2.258 2.116 3.79 2.116h7.217a21.4 21.4 0 0 0-2.662 8.133 6.27 6.27 0 0 0 1.45 4.794 5.84 5.84 0 0 0 4.43 2.062h44.826c1.33 0 2.61-.472 3.636-1.315l.83.153c.745.173 1.507.263 2.271.263 2.744 0 5.327-1.104 7.269-3.109 2.335-2.41 3.367-5.898 2.829-9.57z"/><path fill="#4ce0aa" d="M10.35 52.384a1.337 1.337 0 0 1-1.252-1.808l10.546-33.52.02-.043c.21-.493.694-.813 1.23-.813H60.56c.536 0 1.02.318 1.23.813l.02.044 10.546 33.52a1.336 1.336 0 0 1-1.252 1.807z"/><path fill="#211256" d="M60.556 17.17c.145 0 .277.088.334.222L71.43 50.899a.37.37 0 0 1-.334.514H10.35a.368.368 0 0 1-.333-.514l10.541-33.507a.36.36 0 0 1 .334-.221h39.666m-.002-1.941H20.892c-.927 0-1.76.55-2.124 1.402l-.038.087-.028.092L8.178 50.263a2.3 2.3 0 0 0 .248 2.058 2.3 2.3 0 0 0 1.927 1.034H71.1c.777 0 1.498-.388 1.926-1.034a2.3 2.3 0 0 0 .248-2.058L62.75 16.81l-.028-.092-.038-.09a2.31 2.31 0 0 0-2.124-1.4z"/><path fill="#211256" d="M40.45 50.062c12.328 0 22.322-7.008 22.322-15.653S52.778 18.757 40.45 18.757s-22.322 7.008-22.322 15.652c0 8.645 9.994 15.653 22.322 15.653"/><path fill="#fff" d="M24.02 22.374 20.154 44.76a.3.3 0 0 0 .29.357h40.01a.3.3 0 0 0 .29-.355L57.13 22.377a.3.3 0 0 0-.29-.255H24.31a.3.3 0 0 0-.29.25z"/><path fill="#211256" d="M60.455 45.951H20.444c-.332 0-.646-.146-.861-.4a1.15 1.15 0 0 1-.253-.934l3.866-22.385a1.13 1.13 0 0 1 1.114-.944h32.53c.557 0 1.027.403 1.115.957l3.616 22.385c.052.333-.042.67-.26.927a1.13 1.13 0 0 1-.856.397zm-39.368-1.67H59.82L56.376 22.96H24.769l-3.684 21.323z"/><path fill="#211256" d="M29.043 27.385c-1.506 0-2.686-.745-2.686-1.694 0-.948 1.18-1.693 2.686-1.693s2.687.745 2.687 1.693c0 .95-1.18 1.694-2.687 1.694"/><path fill="#211256" d="M29.043 24.313c1.31 0 2.37.618 2.37 1.378s-1.06 1.379-2.37 1.379c-1.309 0-2.37-.618-2.37-1.379 0-.76 1.061-1.378 2.37-1.378m0-.63c-1.682 0-3.002.882-3.002 2.008 0 1.127 1.317 2.01 3.002 2.01s3.003-.883 3.003-2.01-1.318-2.009-3.003-2.009"/><path fill="#f7c657" d="M28.925 26.949c-.598 0-1.16-.26-1.67-.778a.78.78 0 0 1-.22-.539v-2.934c0-1.22.88-2.212 1.962-2.212 1.083 0 1.962.992 1.962 2.212v2.921c0 .23-.101.443-.273.585-.593.493-1.186.743-1.764.743z"/><path fill="#211256" d="M28.997 21.012c.789 0 1.435.76 1.435 1.687v2.92c0 .072-.031.14-.082.182q-.74.619-1.425.62c-.457 0-.883-.204-1.294-.62a.24.24 0 0 1-.066-.17v-2.935c0-.929.646-1.687 1.435-1.687m-.003-1.05c-1.373 0-2.488 1.23-2.488 2.74v2.933c0 .34.136.67.37.91.614.617 1.301.933 2.046.933.705 0 1.412-.292 2.102-.866.292-.243.459-.602.459-.988V22.7c0-1.512-1.116-2.74-2.489-2.74M52.635 27.602c-1.507 0-2.686-.745-2.686-1.694 0-.948 1.18-1.693 2.686-1.693s2.686.745 2.686 1.693-1.18 1.694-2.686 1.694"/><path fill="#211256" d="M52.635 24.53c1.309 0 2.37.618 2.37 1.378s-1.061 1.378-2.37 1.378-2.37-.617-2.37-1.378 1.06-1.378 2.37-1.378m0-.63c-1.683 0-3.003.882-3.003 2.008 0 1.127 1.318 2.01 3.003 2.01s3.003-.883 3.003-2.01S54.32 23.9 52.635 23.9"/><path fill="#f7c657" d="M52.516 27.168c-.597 0-1.16-.26-1.67-.778a.78.78 0 0 1-.219-.539v-2.933c0-1.22.879-2.213 1.962-2.213s1.961.992 1.961 2.213v2.92c0 .23-.1.443-.272.585-.593.493-1.186.743-1.764.743z"/><path fill="#211256" d="M52.589 21.23c.788 0 1.434.76 1.434 1.688v2.92c0 .073-.03.14-.081.182q-.742.619-1.426.62c-.457 0-.883-.204-1.294-.62a.24.24 0 0 1-.066-.17v-2.934c0-.93.646-1.688 1.435-1.688m-.002-1.049c-1.373 0-2.491 1.23-2.491 2.739v2.933c.002.34.136.67.37.91.616.62 1.303.933 2.046.933.705 0 1.412-.291 2.102-.865.292-.244.46-.605.46-.99v-2.921c0-1.512-1.117-2.739-2.49-2.739z"/><path fill="#9c69ff" d="M18.583 67.544a1.125 1.125 0 0 1-1.112-1.255c.904-7.783 7.28-13.79 14.865-14.032-1.79-2.896-2.721-7.103-2.721-10.238 0-3.907 1.008-7.171 2.917-9.437 1.968-2.338 4.845-3.573 8.318-3.573 2.831 0 5.36 1.05 7.315 3.032 2.583 2.623 4.017 6.781 3.936 11.408-.055 3.144-1.263 5.842-2.33 7.623.52-.06 1.003-.077 1.374-.077.778 0 1.505.072 2.002.197l9.085 1.98c-1.443-4.357-2.568-6.029-4.163-8.125-2.084-2.74-2.108-5.574-.066-7.4 1-.891 2.047-1.345 3.117-1.345 1.314 0 2.595.682 3.81 2.025 6.692 7.408 10.136 18.428 10.571 21.39.308 2.104-.21 3.973-1.46 5.263a5.46 5.46 0 0 1-3.89 1.66q-.665 0-1.31-.161l-4.496-.83q.056.365.097.74a1.04 1.04 0 0 1-.26.806 1.04 1.04 0 0 1-.769.342h-44.83z"/><path fill="#211256" d="M40.85 29.885c6.579 0 10.504 6.067 10.372 13.549-.092 5.217-3.657 9.233-3.65 9.233.83-.59 2.315-.793 3.571-.793.739 0 1.398.07 1.8.175l10.559 2.303h.004a.014.014 0 0 0 .013-.02c-1.667-5.434-2.873-7.34-4.753-9.811-1.545-2.03-2.07-4.529-.18-6.216.856-.765 1.702-1.122 2.53-1.122 1.09 0 2.146.618 3.156 1.735 6.636 7.345 9.949 18.153 10.355 20.93.242 1.657-.077 3.344-1.223 4.527a4.54 4.54 0 0 1-3.26 1.394c-.373 0-.75-.046-1.12-.143l-5.77-1.064h-.005q-.015.002-.013.017c.15.622.255 1.26.325 1.91a.16.16 0 0 1-.154.178H18.583a.246.246 0 0 1-.24-.278c.855-7.366 6.841-13.098 14.156-13.26.013 0 1.557-.015 1.548-.024-2.203-2.458-3.556-7.298-3.556-11.086 0-7.485 3.778-12.134 10.357-12.134m.002-1.753c-7.473 0-12.114 5.322-12.114 13.887 0 2.075.365 4.404 1.03 6.557.262.85.635 1.88 1.145 2.912a16.1 16.1 0 0 0-9.116 4.294c-2.887 2.722-4.732 6.418-5.193 10.405a2 2 0 0 0 1.986 2.233h44.826a1.914 1.914 0 0 0 1.9-1.698l3.34.616q.736.18 1.497.181a6.34 6.34 0 0 0 4.522-1.928c1.444-1.49 2.048-3.62 1.698-5.998-.463-3.158-3.879-14.202-10.79-21.851-1.385-1.536-2.888-2.314-4.46-2.314-1.292 0-2.538.528-3.702 1.569-2.379 2.123-2.399 5.493-.048 8.582 1.346 1.773 2.348 3.232 3.517 6.406l-7.54-1.643c-.54-.133-1.264-.212-2.062-.221.872-1.777 1.652-4.073 1.696-6.654.086-4.862-1.441-9.25-4.189-12.04-2.124-2.155-4.87-3.295-7.94-3.295z"/><path fill="#9c69ff" d="M58.64 52.47s8.433 2.17 9.202 2.776z"/><path fill="#211256" d="M67.84 56.028a.8.8 0 0 1-.486-.169c-.538-.348-4.958-1.615-8.911-2.634a.782.782 0 1 1 .393-1.514c2.583.667 8.68 2.281 9.491 2.921a.78.78 0 0 1 .13 1.098.78.78 0 0 1-.615.298z"/><path fill="#f7c657" d="m26.093 67.272.035-.914a11.65 11.65 0 0 1 3.416-7.828c2.102-2.095 4.859-3.25 7.763-3.25h9.083c2.904 0 5.66 1.155 7.763 3.25a11.66 11.66 0 0 1 3.415 7.828l.035.914z"/><path fill="#211256" d="M46.39 56.16c5.529 0 10.076 4.565 10.298 10.231H27.009c.222-5.666 4.767-10.232 10.298-10.232zm0-1.76h-9.083c-3.139 0-6.117 1.244-8.387 3.505a12.52 12.52 0 0 0-3.672 8.418l-.073 1.827H58.52l-.07-1.827a12.54 12.54 0 0 0-3.673-8.418C52.51 55.645 49.53 54.4 46.39 54.4"/><path fill="#fff" d="M55.932 48.064c-.444 0-.8-.331-.868-.805-.099-.679.17-3.464.589-4.257l.026-.052c.031-.062.07-.14.13-.233l5.711-9.272c.32-.552.835-.907 1.483-1.012h.022q.224-.033.452-.033c.914 0 2.575.355 3.43 2.737.203.596.346 1.22-.273 1.847l-6.357 9.193-.029.033a1.4 1.4 0 0 1-.42.35c-.812.493-2.093 1.138-3.655 1.466a1 1 0 0 1-.239.035z"/><path fill="#201255" d="M63.477 33.117c.82 0 2.07.355 2.755 2.263.189.554.206.81-.15 1.144l-6.372 9.215c-.055.061-.147.164-.222.193-.944.576-2.157 1.126-3.501 1.404a.1.1 0 0 1-.055.011c-.086 0-.143-.085-.158-.19-.086-.6.184-3.204.511-3.824.044-.08.07-.15.123-.225l5.723-9.29c.145-.248.426-.59.986-.68.105-.012.228-.021.36-.021m0-1.429q-.273 0-.545.035h-.022l-.022.007a2.79 2.79 0 0 0-1.987 1.356l-5.696 9.248c-.084.125-.136.235-.172.302q-.006.016-.017.033c-.501.951-.78 3.887-.663 4.693.118.822.781 1.416 1.577 1.416q.211 0 .413-.055a12.6 12.6 0 0 0 3.83-1.536c.264-.138.455-.328.609-.502l.057-.063.048-.07 6.3-9.11c.925-.982.558-2.053.398-2.52l-.005-.009-.004-.008c-1.039-2.9-3.214-3.212-4.103-3.212z"/><path fill="#9c69ff" d="M65.483 39.655c-2.671-1.712-8.297-.513-3.52 2.517-.67 1.334.014 3.111 1.39 3.602"/><path fill="#201255" d="M63.35 46.3a.6.6 0 0 1-.178-.03c-.784-.281-1.423-.917-1.757-1.747a3.2 3.2 0 0 1-.101-2.147c-1.202-.828-1.77-1.6-1.738-2.353.024-.522.352-.973.923-1.267 1.192-.615 3.648-.578 5.267.458a.527.527 0 1 1-.571.885c-1.259-.806-3.297-.883-4.213-.41-.156.082-.345.213-.354.38-.004.103.053.668 1.615 1.658.228.145.31.438.189.68-.26.514-.273 1.14-.04 1.722.222.552.635.97 1.133 1.148a.525.525 0 0 1-.177 1.02z"/></svg>