<svg xmlns="http://www.w3.org/2000/svg" width="84" height="84" fill="none" viewBox="0 0 84 84"><g clip-path="url(#a)"><path fill="#fff" d="m73.996 55.439 1.038-1.956a6.25 6.25 0 0 0-2.075-8.033V11.922c0-2.868-2.333-5.199-5.199-5.199H14.795a5.206 5.206 0 0 0-5.2 5.2v5.054a6.2 6.2 0 0 0-1.723 1.11A6.245 6.245 0 0 0 6.31 25.08l.818 1.976-1.002 1.888a6.245 6.245 0 0 0 .894 7.111 6.2 6.2 0 0 0 2.577 1.696v32.111c0 2.868 2.333 5.2 5.199 5.2h52.967c2.866 0 5.2-2.334 5.2-5.2v-5.206q.147-.119.289-.248a6.245 6.245 0 0 0 1.563-6.995z"/><path fill="#2cc8ff" d="M67.63 12.322H14.925V70.26h52.707z"/><path fill="#e58c65" d="M52.057 56.103c-2.3 2.088-4.835 2.842-6.867 6.186l-.264-.158c-11.575 1.18-18.87 1.156-18.87 1.156l-.227.004c-.07-3.094.395-6.6 2.158-9.648 4.559-2.4 9.537-3.259 9.537-3.259l-.792-4.247-.042-.443c2.684-.257 6.774-1.279 11.195-4.656l.361-.021c.325 5.762 1.033 11.845 3.618 14.961l.193.13z"/><path fill="#e58c65" d="M33.48 45.654C27.312 42 28.487 31.353 29.248 27.01c.202-1.154 1.383-2.84 2.399-3.425 1.006-.584 2.01-.972 3.386-1.053l.405-.085s6.925-.542 11.284 4.637c1.261 1.498 1.18 7.837 1.524 13.931l-.361.022c-4.419 3.377-8.51 4.4-11.195 4.656-1.993.19-3.21-.038-3.21-.038"/><path fill="#913048" d="m27.564 53.87-.055-.096c-3.259-6.357-3.325-19.353-2.498-24.366 1.04-6.3 4.403-15.205 16.106-14.16 7.89.707 12.861 5.536 14.188 10.75 1.322 5.184 3.02 25.152 3.041 25.395l-.024-.013s-2.877 1.647-6.265 4.723l-.193-.13c-2.585-3.115-3.293-9.196-3.618-14.96-.344-6.095-.263-12.434-1.524-13.932-4.36-5.181-11.284-4.637-11.284-4.637l-.406.085c-1.375.081-2.379.47-3.385 1.052-1.016.586-2.195 2.272-2.4 3.426-.76 4.344-1.938 14.99 4.233 18.645 0 0 1.217.23 3.21.038l.042.442.791 4.248s-4.977.86-9.536 3.258a8 8 0 0 0-.423.23z"/><path fill="#d82a71" d="M27.564 69.238c-6.741.022-12.74.033-12.74.033.751-3.29-.81-4.969.46-7.219 2.16-3.824 7.598-5.414 10.894-7.666.568-.388 1.16-.745 1.76-1.077q.211-.119.424-.23c-1.763 3.048-2.228 6.557-2.158 9.649.103 4.54 1.357 6.196 1.357 6.196v.312z"/><path fill="#e8bb8b" d="M47.5 56.287c-1.203-2.793-2.012-5.615-2.422-8.602-2.518.844-5.12 1.408-7.754 1.618l.202 1.077s-4.978.86-9.537 3.258c-1.763 3.048-2.228 6.557-2.158 9.649.478-.064 7.162.037 19.098-1.16l.263.158c1.125-1.851 2.403-1.518 3.712-2.993a67 67 0 0 1-1.403-3.007zM43.78 31.566c-.198-1.318-.04-1.51-.957-2.562-1.443-1.789-3.416-2.914-5.88-3.164-4.193-.425-5.448-.083-7.761 1.544-.72 4.335-1.877 16.441 5.247 18.367a2.37 2.37 0 0 1 1.71-.825c2.998-.142 5.998-.767 8.78-1.927-1.129-2.93-.73-8.326-1.14-11.434"/><path fill="#913048" d="m45.13 63.105.062-.217c-1.358 2.228-2.487 4.118-3.178 6.852-5.236.024-10.44.042-14.823.06v-.312s-1.257-1.656-1.357-6.197l.225-.004s7.498 1 19.073-.18z"/><path fill="#d82a71" d="M67.808 60.866c-2.598-3.566-9.087-9.287-9.46-9.473l-.024-.013s-2.877 1.647-6.265 4.723c-2.3 2.088-4.835 2.842-6.867 6.186-1.358 2.228-2.487 4.717-3.178 7.451 9.828-.046 20.928.285 25.794.209z"/><path fill="#211256" d="M35.149 46.729c-1.136 0-1.807-.123-1.847-.132a1 1 0 0 1-.311-.118c-6.647-3.94-5.493-15.047-4.689-19.639.253-1.445 1.593-3.357 2.864-4.092 1.29-.745 2.43-1.098 3.811-1.18a.96.96 0 1 1 .112 1.92c-1.074.063-1.932.33-2.96.925-.77.445-1.78 1.888-1.932 2.758-.728 4.16-1.82 14.137 3.62 17.558.369.046 1.364.14 2.785.004 2.535-.243 6.45-1.214 10.701-4.462a.963.963 0 0 1 1.169 1.528c-4.614 3.526-8.9 4.583-11.686 4.85-.616.06-1.164.082-1.633.082z"/><path fill="#211256" d="M51.864 56.936a.96.96 0 0 1-.74-.348c-2.803-3.377-3.514-9.74-3.838-15.521-.077-1.35-.132-2.712-.184-4.028-.154-3.752-.342-8.423-1.114-9.337-3.976-4.726-10.412-4.305-10.475-4.298a.963.963 0 0 1-.147-1.919c.302-.024 7.47-.517 12.095 4.978 1.14 1.353 1.33 4.7 1.566 10.5.053 1.308.107 2.661.184 3.996.29 5.147.936 11.436 3.399 14.4a.963.963 0 0 1-.739 1.577z"/><path fill="#211256" d="M27.509 54.537a.96.96 0 0 1-.91-.65C23.33 44.307 23.83 34.37 24.42 29.297c.57-4.91 2.875-9.383 6.166-11.966 2.842-2.23 6.327-3.105 10.36-2.6 3.872.484 7.376 1.949 10.132 4.236 2.53 2.1 4.327 4.833 5.055 7.697 1.353 5.302 3.153 24.456 3.17 24.645q.005.043.005.085c0 .53-.43.963-.963.963a.946.946 0 0 1-.96-.893c-.06-.64-1.84-19.312-3.118-24.327-1.599-6.28-7.965-9.797-13.563-10.499-3.504-.438-6.508.303-8.931 2.206-2.897 2.274-4.932 6.265-5.445 10.677-.57 4.91-1.057 14.525 2.088 23.746a.963.963 0 0 1-.91 1.274z"/><path fill="#211256" d="M41.999 70.758q-.108-.002-.217-.024a.96.96 0 0 1-.72-1.154c.562-2.427 1.518-3.697 2.726-5.302.456-.605.974-1.294 1.527-2.123 3.12-4.484 6.633-7.771 11.738-10.98.02-.025.041-.058.059-.082.651-.935 1.267-.849 1.67-.612 3.356 1.971 7.68 5.861 9.252 7.508a.96.96 0 1 1-1.392 1.327c-1.364-1.43-5.142-4.84-8.204-6.791q-.03.032-.06.063-.078.076-.172.136c-4.943 3.09-8.322 6.234-11.3 10.515-.572.86-1.107 1.57-1.578 2.197-1.156 1.535-1.919 2.55-2.39 4.58a.96.96 0 0 1-.937.746zM14.813 65.44a.964.964 0 0 1-.875-1.364c1.89-4.118 7.367-8.107 10.586-9.784 2.577-1.342 7.774-3.72 11.881-4.662l-.618-3.32a.963.963 0 0 1 1.892-.353l.792 4.248a.97.97 0 0 1-.154.723.95.95 0 0 1-.62.4c-4.002.718-9.785 3.367-12.282 4.67-3.599 1.875-8.232 5.624-9.728 8.88a.96.96 0 0 1-.874.562"/><path fill="#211256" d="M33.49 64.552c-4.58 0-7.345-.29-7.538-.311a.961.961 0 1 1 .206-1.913c.079.01 7.97.832 19.297-.322a.962.962 0 0 1 .195 1.914c-4.78.487-8.925.632-12.161.632z"/><path fill="#211256" d="M27.197 70.453a.98.98 0 0 1-.776-.384c-.147-.195-1.445-2.04-1.552-6.756-.088-3.96.68-7.374 2.287-10.153a.961.961 0 1 1 1.664.963c-1.428 2.467-2.11 5.546-2.028 9.146.092 4.081 1.16 5.634 1.17 5.649a.957.957 0 0 1-.767 1.535z"/><path fill="#211256" d="M67.762 70.848H14.795a.985.985 0 0 1-.985-.985v-57.94c0-.544.441-.985.985-.985h52.967c.544 0 .985.44.985.984v57.939c0 .544-.441.984-.985.984zM15.78 68.876h50.999v-55.97H15.779z"/><path fill="#2cc8ff" d="M67.63 12.322H14.925V70.26h52.707z"/><path fill="#e8bb8b" d="M52.057 56.103c-2.3 2.088-4.835 2.842-6.867 6.186l-.264-.158c-11.575 1.18-18.87 1.156-18.87 1.156l-.227.004c-.07-3.094.395-6.6 2.158-9.648 4.559-2.4 9.537-3.259 9.537-3.259l-.792-4.247-.042-.443c2.684-.257 6.774-1.279 11.195-4.656l.361-.021c.325 5.762 1.033 11.845 3.618 14.961l.193.13z"/><path fill="#e8bb8b" d="M33.48 45.654C27.312 42 28.487 31.353 29.248 27.01c.202-1.154 1.436-2.756 2.399-3.425 1.723-1.198 3.791-1.138 3.791-1.138s6.925-.542 11.284 4.637c1.261 1.498 1.18 7.837 1.524 13.931l-.361.022c-4.419 3.377-8.51 4.4-11.195 4.656-1.993.19-3.21-.038-3.21-.038"/><path fill="#d6614d" d="m27.564 53.87-.055-.096c-3.259-6.357-3.325-19.353-2.498-24.366 1.04-6.3 4.403-15.205 16.106-14.16 7.89.707 12.861 5.536 14.188 10.75 1.322 5.184 3.02 25.152 3.041 25.395l-.024-.013s-2.877 1.647-6.265 4.723l-.193-.13c-2.585-3.115-3.293-9.196-3.618-14.96-.344-6.095-.263-12.434-1.524-13.932-4.36-5.181-11.284-4.637-11.284-4.637l-.406.085c-1.375.081-2.379.47-3.385 1.052-1.016.586-2.195 2.272-2.4 3.426-.76 4.344-1.938 14.99 4.233 18.645 0 0 1.217.23 3.21.038l.042.442.791 4.248s-4.977.86-9.536 3.258a8 8 0 0 0-.423.23z"/><path fill="#d82a71" d="M27.564 69.238c-6.741.022-12.74.033-12.74.033.751-3.29-.81-4.969.46-7.219 2.16-3.824 7.598-5.414 10.894-7.666.568-.388 1.16-.745 1.76-1.077q.211-.119.424-.23c-1.763 3.048-2.228 6.557-2.158 9.649.103 4.54 1.357 6.196 1.357 6.196v.312z"/><path fill="#ffe5b8" d="M47.5 56.287c-1.203-2.793-2.012-5.615-2.422-8.602-2.518.844-5.12 1.408-7.754 1.618l.202 1.077s-4.978.86-9.537 3.258c-1.763 3.048-2.228 6.557-2.158 9.649.478-.064 7.162.037 19.098-1.16l.263.158c1.125-1.851 2.403-1.518 3.712-2.993a67 67 0 0 1-1.403-3.007zM43.731 32.6c-.197-1.317-.384-2.83-.905-3.596-1.294-1.9-3.417-2.914-5.882-3.164-4.192-.425-6.79.825-7.76 2.373-2.333 3.723-1.877 15.615 5.247 17.538a2.38 2.38 0 0 1 1.71-.825c2.999-.142 5.998-.767 8.78-1.927-1.128-2.93-.777-7.291-1.19-10.398"/><path fill="#d6614d" d="m45.13 63.105.062-.217c-1.358 2.228-2.487 4.118-3.178 6.852-5.236.024-10.44.042-14.823.06v-.312s-1.257-1.656-1.357-6.197l.225-.004s7.498 1 19.073-.18z"/><path fill="#d82a71" d="M67.808 60.866c-2.598-3.566-9.087-9.287-9.46-9.473l-.024-.013s-2.877 1.647-6.265 4.723c-2.3 2.088-4.835 2.842-6.867 6.186-1.358 2.228-2.487 4.717-3.178 7.451 9.828-.046 20.928.285 25.794.209z"/><path fill="#211256" d="M51.864 57.009c-.296 0-.592-.127-.796-.375-2.55-3.075-3.377-8.596-3.752-13.914-4.166 2.849-7.975 3.755-10.527 4-.651.062-1.294.09-1.906.079a5.15 5.15 0 0 1-3.381-1.329c-4.908-4.467-4.158-13.597-3.274-18.643.257-1.465 1.67-3.303 2.83-4.099 3.37-2.315 11.647-2.026 16.454 3.687 1.155 1.372 1.344 4.727 1.58 10.543.053 1.309.108 2.662.185 3.997.29 5.136.934 11.41 3.381 14.359a1.033 1.033 0 0 1-.796 1.695zM36.423 23.426c-1.774 0-3.294.39-4.189 1.006-.835.575-1.826 1.963-1.965 2.752-.653 3.726-1.703 12.813 2.628 16.756a3.08 3.08 0 0 0 2.023.791c.535.009 1.1-.015 1.674-.07 2.508-.239 6.374-1.197 10.578-4.383-.055-1.09-.099-2.178-.143-3.237-.151-3.74-.342-8.396-1.096-9.293-2.662-3.164-6.46-4.322-9.51-4.322"/><path fill="#211256" d="M27.509 54.61c-.43 0-.833-.27-.98-.702-3.272-9.591-2.772-19.542-2.182-24.62.572-4.93 2.888-9.421 6.194-12.017 2.858-2.244 6.362-3.123 10.412-2.616 3.888.486 7.403 1.956 10.17 4.252 2.544 2.109 4.346 4.857 5.079 7.733 1.353 5.307 3.155 24.468 3.173 24.657q.003.044.004.092c0 .572-.462 1.035-1.035 1.035-.572 0-.993-.424-1.033-.96-.061-.654-1.842-19.32-3.116-24.315-1.59-6.247-7.927-9.747-13.5-10.444-3.485-.436-6.472.3-8.88 2.19-2.88 2.261-4.907 6.235-5.416 10.627-.57 4.905-1.057 14.508 2.084 23.713a1.036 1.036 0 0 1-.979 1.368z"/><path fill="#211256" d="M41.999 70.832q-.116 0-.235-.026a1.034 1.034 0 0 1-.774-1.241c.566-2.443 1.526-3.717 2.739-5.331.456-.605.971-1.291 1.524-2.12 3.125-4.493 6.642-7.783 11.75-10.995l.047-.07c.72-1.033 1.417-.84 1.768-.634 3.361 1.974 7.692 5.872 9.267 7.521a1.033 1.033 0 1 1-1.498 1.428c-1.353-1.419-5.092-4.796-8.14-6.747l-.022.022a1 1 0 0 1-.184.146c-4.934 3.084-8.306 6.221-11.28 10.495-.574.86-1.11 1.572-1.58 2.2-1.15 1.528-1.91 2.537-2.378 4.552-.112.478-.537.8-1.006.8zM14.813 65.513q-.22 0-.433-.095a1.035 1.035 0 0 1-.508-1.373c1.899-4.133 7.39-8.135 10.62-9.817 2.565-1.335 7.725-3.697 11.83-4.653l-.608-3.252a1.034 1.034 0 0 1 2.033-.38l.792 4.248a1.03 1.03 0 0 1-.836 1.209c-3.993.717-9.767 3.363-12.26 4.664-3.59 1.868-8.205 5.605-9.694 8.845-.173.38-.548.603-.94.603z"/><path fill="#211256" d="M33.49 64.627c-4.584 0-7.354-.29-7.545-.312a1.035 1.035 0 0 1 .224-2.057c.079.01 7.964.831 19.281-.322a1.034 1.034 0 1 1 .208 2.059c-4.782.487-8.928.632-12.167.632"/><path fill="#211256" d="M27.198 70.527a1.05 1.05 0 0 1-.836-.414c-.15-.197-1.46-2.06-1.566-6.798-.09-3.973.684-7.4 2.296-10.19a1.034 1.034 0 0 1 1.415-.377c.495.285.664.919.377 1.415-1.421 2.455-2.099 5.519-2.02 9.108.092 4.05 1.147 5.594 1.158 5.61a1.03 1.03 0 0 1-.824 1.65z"/><path fill="#211256" d="M67.762 70.896H14.795a1.034 1.034 0 0 1-1.035-1.035V11.922c0-.572.462-1.035 1.035-1.035h52.967c.572 0 1.035.463 1.035 1.035v57.939c0 .572-.463 1.035-1.035 1.035m-51.934-2.068h50.9v-55.87h-50.9z"/><path fill="#fff" d="m22.156 24-1.651 3.114a1.35 1.35 0 0 0-.055 1.147l1.351 3.256c.482 1.167-.759 2.296-1.875 1.704l-3.114-1.651a1.35 1.35 0 0 0-1.147-.055l-3.256 1.35c-1.166.483-2.296-.758-1.704-1.874l1.652-3.114c.188-.355.208-.776.054-1.147l-1.35-3.256c-.483-1.166.758-2.296 1.874-1.704l3.114 1.652c.355.188.777.208 1.147.054l3.256-1.35c1.167-.483 2.296.758 1.704 1.874"/><path fill="#211256" d="M20.562 34.318a2.3 2.3 0 0 1-1.075-.27l-3.115-1.654a.42.42 0 0 0-.354-.017l-3.256 1.35c-.899.373-1.903.148-2.557-.572a2.25 2.25 0 0 1-.326-2.598l1.65-3.116a.42.42 0 0 0 .018-.353l-1.35-3.257a2.25 2.25 0 0 1 .572-2.556 2.25 2.25 0 0 1 2.598-.327l3.114 1.651c.11.057.24.064.353.018l3.257-1.351a2.255 2.255 0 0 1 2.556.572c.654.72.783 1.741.327 2.599l-1.651 3.113a.42.42 0 0 0-.018.354l1.351 3.256a2.255 2.255 0 0 1-.572 2.557 2.26 2.26 0 0 1-1.526.596zm-4.383-3.836c.366 0 .732.09 1.065.266l3.114 1.653a.396.396 0 0 0 .474-.06.39.39 0 0 0 .103-.464l-1.351-3.256a2.27 2.27 0 0 1 .092-1.939l1.651-3.114a.4.4 0 0 0-.059-.473.39.39 0 0 0-.465-.103l-3.256 1.35a2.27 2.27 0 0 1-1.939-.092l-3.113-1.65a.4.4 0 0 0-.474.058.39.39 0 0 0-.103.465l1.35 3.257c.262.629.229 1.337-.091 1.938l-1.652 3.114a.4.4 0 0 0 .06.473.39.39 0 0 0 .464.106l3.257-1.351c.28-.116.577-.173.873-.173z"/><path fill="#fff" d="m70.42 51.503-1.651 3.113a1.35 1.35 0 0 0-.055 1.147l1.35 3.257c.483 1.166-.758 2.295-1.874 1.703l-3.114-1.65a1.35 1.35 0 0 0-1.147-.056l-3.256 1.351c-1.167.483-2.296-.759-1.704-1.875l1.651-3.114c.189-.355.209-.776.055-1.146l-1.35-3.257c-.483-1.166.758-2.295 1.874-1.703l3.114 1.65c.355.19.776.209 1.147.055l3.256-1.35c1.167-.483 2.296.758 1.704 1.875"/><path fill="#211256" d="M68.826 61.818a2.3 2.3 0 0 1-1.075-.27l-3.114-1.651a.42.42 0 0 0-.353-.018l-3.256 1.35a2.25 2.25 0 0 1-2.557-.571 2.255 2.255 0 0 1-.326-2.599l1.65-3.114a.42.42 0 0 0 .018-.353l-1.35-3.256a2.25 2.25 0 0 1 .572-2.557 2.255 2.255 0 0 1 2.598-.327l3.116 1.654c.11.059.24.063.353.017l3.257-1.35a2.25 2.25 0 0 1 2.556.572c.654.72.783 1.741.327 2.598L69.59 55.06a.42.42 0 0 0-.018.353l1.351 3.257c.373.899.147 1.903-.572 2.557a2.26 2.26 0 0 1-1.526.596zm-4.382-3.833c.367 0 .733.09 1.066.265l3.114 1.651a.396.396 0 0 0 .474-.06.39.39 0 0 0 .103-.464l-1.351-3.256a2.27 2.27 0 0 1 .092-1.939l1.653-3.114a.4.4 0 0 0-.059-.473.39.39 0 0 0-.465-.103l-3.256 1.35a2.27 2.27 0 0 1-1.938-.092l-3.114-1.653a.396.396 0 0 0-.474.06.39.39 0 0 0-.103.464l1.35 3.256c.262.63.229 1.338-.091 1.939l-1.651 3.114a.4.4 0 0 0 .059.473.39.39 0 0 0 .465.106l3.256-1.351c.28-.116.577-.173.873-.173z"/></g><defs><clipPath id="a"><path fill="#fff" d="M0 0h84v84H0z"/></clipPath></defs></svg>